<?xml version="1.0" standalone="no"?>
<!DOCTYPE svg PUBLIC "-//W3C//DTD SVG 20010904//EN"
 "http://www.w3.org/TR/2001/REC-SVG-20010904/DTD/svg10.dtd">
<svg version="1.0" xmlns="http://www.w3.org/2000/svg"
 width="1280.000000pt" height="1280.000000pt" viewBox="0 0 1280.000000 1280.000000"
 preserveAspectRatio="xMidYMid meet">

<g transform="translate(0.000000,1280.000000) scale(0.100000,-0.100000)"
fill="#000000" stroke="none">
<path d="M2255 8159 c-60 -12 -190 -73 -264 -125 -282 -193 -485 -537 -575
-976 -2 -7 -5 -20 -9 -28 -8 -22 -27 -100 -34 -135 -12 -72 -10 -320 4 -379
24 -106 62 -206 76 -206 5 0 6 -4 2 -9 -3 -5 -1 -12 5 -16 5 -3 10 1 10 9 0 9
4 16 10 16 23 0 27 36 8 90 -23 68 -24 70 -43 205 -15 101 -15 141 1 262 2 18
13 67 24 108 11 41 20 78 20 82 1 5 8 -4 16 -19 8 -16 22 -29 32 -30 9 0 22
-2 27 -3 6 -2 15 -3 20 -4 6 -1 2 -6 -7 -12 -25 -14 -24 -48 1 -46 11 0 17 6
14 14 -3 7 -1 13 5 13 18 0 23 -33 7 -49 -10 -12 -26 -16 -49 -13 -29 3 -41
-1 -66 -26 -28 -28 -30 -36 -30 -101 0 -83 19 -130 62 -156 20 -11 28 -23 25
-34 -45 -141 -44 -207 4 -252 16 -15 29 -31 29 -37 0 -5 8 -16 17 -23 15 -12
16 -12 8 1 -5 8 -10 20 -10 25 0 12 -36 67 -50 77 -6 5 -6 8 0 8 6 0 10 28 10
63 0 64 23 121 55 138 27 14 55 22 65 19 6 -2 21 -3 35 -4 33 -1 36 -39 4 -44
-16 -2 -23 -12 -26 -32 -6 -38 3 -51 29 -46 25 5 25 -13 -1 -39 -14 -14 -20
-15 -26 -5 -4 7 -12 10 -18 6 -6 -3 -12 -1 -14 5 -7 21 -63 -5 -66 -30 -7 -45
49 -64 80 -27 9 12 17 16 18 9 0 -6 -5 -15 -10 -18 -7 -4 -7 -13 0 -25 14 -26
-22 -64 -52 -56 -15 3 -18 2 -10 -6 6 -6 8 -18 5 -27 -5 -13 -3 -12 8 2 8 10
22 19 31 20 22 4 48 27 48 43 0 8 6 11 15 8 9 -4 15 0 15 10 0 9 -4 16 -8 16
-5 0 -9 7 -9 16 0 15 2 15 13 -1 12 -16 14 -16 39 3 14 11 21 23 16 26 -5 3
-12 0 -15 -6 -5 -10 -7 -10 -12 0 -3 6 -10 12 -15 12 -6 0 -7 -4 -4 -10 3 -5
0 -7 -9 -4 -11 4 -12 9 -4 18 12 12 68 18 68 7 0 -4 28 -7 63 -5 75 3 77 3 52
14 -14 6 -15 9 -5 9 29 2 20 38 -13 54 -32 16 -67 8 -67 -15 0 -7 4 -7 13 -1
14 12 45 9 59 -5 6 -6 -1 -8 -19 -5 -21 3 -24 2 -13 -6 8 -5 11 -13 8 -17 -4
-3 -19 2 -35 13 -15 10 -38 18 -50 17 -12 -1 -20 2 -18 7 3 4 -3 12 -12 18
-17 10 -17 10 0 11 9 0 17 6 17 13 0 16 32 16 52 1 16 -13 58 -16 58 -4 0 5
-4 11 -8 14 -4 2 -9 19 -10 36 -2 30 -1 32 24 26 24 -6 26 -5 20 16 -3 13 -6
31 -6 41 0 13 -9 17 -40 17 -22 0 -40 4 -40 9 0 16 12 19 80 22 64 3 65 2 68
-24 3 -23 0 -27 -21 -27 -21 0 -24 -4 -24 -38 0 -31 3 -38 21 -40 11 0 31 -4
43 -7 12 -3 25 -1 28 5 3 5 -1 10 -10 10 -14 0 -14 3 3 28 11 15 19 30 18 34
0 3 3 10 8 15 5 5 6 3 2 -4 -7 -12 6 -17 41 -16 6 0 14 -6 17 -14 3 -8 1 -11
-4 -8 -6 3 -10 -4 -10 -16 0 -12 3 -19 7 -16 3 4 12 2 20 -4 9 -9 13 -8 13 0
0 6 7 11 16 11 8 0 12 5 9 10 -3 6 -1 10 4 10 15 0 14 -12 -5 -38 -13 -19 -13
-22 0 -22 8 0 21 12 28 28 7 15 20 27 28 28 35 1 80 16 74 25 -8 14 -36 11
-28 -3 4 -8 2 -8 -7 1 -11 10 -11 15 -1 18 7 3 12 22 12 46 0 50 7 61 39 65
19 3 22 0 17 -13 -3 -9 -6 -27 -6 -41 0 -16 -4 -22 -14 -18 -19 7 -28 -22 -10
-36 11 -10 14 -9 14 4 0 9 5 16 11 16 6 0 8 -7 5 -16 -4 -9 -1 -14 6 -12 6 2
13 14 15 27 2 15 -1 20 -9 15 -7 -4 -8 -3 -4 5 4 6 11 9 16 6 5 -3 11 -1 14 4
4 5 -3 12 -14 16 -11 4 -17 11 -14 17 4 6 10 5 16 -3 6 -9 7 -2 2 21 -7 35
-24 72 -58 122 -14 22 -17 38 -12 72 5 29 2 56 -6 78 -17 40 -17 70 -2 75 7 2
14 -16 18 -44 4 -31 19 -69 42 -102 27 -41 33 -61 29 -82 -3 -15 -1 -30 4 -34
6 -3 11 -11 11 -16 0 -6 -4 -7 -10 -4 -5 3 -10 2 -10 -4 0 -5 5 -11 11 -13 6
-2 12 -15 13 -28 1 -18 8 -26 24 -28 12 -2 20 -8 17 -13 -3 -5 2 -6 12 -2 17
6 17 5 1 -13 -17 -18 -18 -18 -33 1 -14 19 -15 19 -8 1 4 -13 3 -17 -5 -12 -7
4 -12 3 -12 -3 0 -15 20 -24 21 -9 0 7 4 3 9 -9 10 -26 40 -31 40 -8 0 8 -5
15 -12 15 -9 0 -8 3 1 13 11 10 14 10 18 0 6 -18 20 -16 20 2 0 8 -4 12 -9 9
-4 -3 -8 0 -8 5 0 6 7 11 15 11 8 0 15 7 15 15 0 9 7 18 15 21 17 7 21 34 4
34 -5 0 -7 -5 -3 -12 4 -7 3 -8 -4 -4 -7 4 -12 18 -12 31 0 13 -4 27 -10 30
-16 10 -12 25 5 19 8 -4 13 -10 10 -14 -3 -5 -1 -11 5 -15 6 -4 8 -11 5 -16
-4 -5 -1 -9 5 -9 6 0 8 11 4 28 -3 15 -2 22 3 15 5 -7 9 9 9 38 1 31 -2 45 -7
37 -6 -9 -9 -6 -9 10 0 13 4 20 10 17 7 -4 10 105 10 339 -1 257 -5 346 -13
346 -8 0 -8 3 1 8 10 7 12 58 10 227 l-3 219 -40 28 c-47 32 -138 43 -220 27z
m168 -85 c13 -4 17 -16 17 -56 l0 -50 -43 44 c-43 45 -85 62 -126 51 -11 -3
-21 -1 -21 5 0 19 113 22 173 6z m-281 -57 c-28 -29 -52 -89 -52 -127 0 -42
20 -120 38 -147 9 -14 10 -23 4 -23 -6 0 -16 -9 -22 -21 -14 -26 4 -51 34 -47
16 2 22 -3 24 -22 2 -14 -3 -33 -10 -42 -16 -22 -68 -32 -88 -18 -13 9 -13 12
3 24 28 22 19 43 -15 37 -5 0 -8 13 -8 29 0 23 6 33 24 40 30 11 28 44 -2 48
-26 4 -26 5 -9 40 8 15 15 46 16 70 2 35 -2 47 -27 72 l-29 29 36 24 c74 49
86 56 95 56 5 1 0 -9 -12 -22z m119 -51 c-23 -28 -15 -136 11 -136 5 0 7 -4 3
-9 -3 -6 3 -14 12 -20 26 -14 10 -23 -20 -12 -28 11 -35 27 -37 86 -3 63 -1
73 16 89 19 20 31 21 15 2z m87 -18 c14 -14 16 -67 3 -87 -24 -38 -59 26 -41
73 11 29 20 32 38 14z m-171 -77 c1 -46 7 -78 18 -95 14 -22 15 -25 3 -21 -30
12 -57 109 -44 160 11 45 21 26 23 -44z m-202 -80 c15 -30 15 -32 -7 -40 -14
-5 -31 -5 -41 1 -11 5 -31 6 -45 2 -27 -7 -63 -6 -71 2 -3 3 26 36 65 75 l69
70 7 -40 c4 -22 14 -53 23 -70z m461 -38 c-10 -10 -19 5 -10 18 6 11 8 11 12
0 2 -7 1 -15 -2 -18z m-525 -28 c0 -13 -41 -19 -41 -7 0 11 20 22 33 18 5 -1
8 -6 8 -11z m77 -6 c-2 -6 -8 -10 -13 -10 -5 0 -11 4 -13 10 -2 6 4 11 13 11
9 0 15 -5 13 -11z m424 -16 c25 -22 22 -83 -4 -83 -6 0 -8 6 -5 14 3 8 -1 20
-10 27 -13 11 -17 10 -29 -6 -19 -26 -18 -41 6 -65 14 -14 28 -18 45 -14 21 5
25 3 25 -15 0 -12 -4 -21 -10 -21 -5 0 -10 5 -10 10 0 16 -27 11 -34 -6 -3 -9
-6 -29 -6 -45 0 -31 -1 -32 -22 -24 -10 4 -13 16 -10 36 4 28 2 30 -16 25 -24
-8 -39 19 -17 31 11 7 12 17 4 53 -10 43 -9 45 23 72 39 32 45 33 70 11z
m-568 -9 c20 -19 20 -54 2 -99 -12 -28 -20 -35 -44 -35 -47 0 -65 -21 -70 -84
-5 -64 10 -85 59 -86 37 0 54 25 54 80 0 42 2 46 18 36 9 -6 20 -20 24 -31 8
-26 10 -104 2 -99 -8 4 -35 -77 -31 -91 2 -5 0 -7 -3 -3 -4 4 -15 -3 -25 -15
-15 -18 -21 -20 -43 -10 -21 10 -25 18 -22 42 2 17 -1 33 -6 37 -5 3 -7 9 -4
13 9 16 -32 42 -63 39 -17 -1 -30 -5 -30 -8 1 -3 -2 -13 -6 -22 -18 -41 36
-77 64 -43 19 23 35 3 20 -24 -8 -15 -17 -20 -30 -16 -31 10 -69 -6 -86 -34
-13 -22 -23 -27 -51 -27 l-35 1 7 40 c3 22 12 49 19 60 6 11 18 40 26 65 16
48 87 189 129 255 l26 40 3 -30 c5 -41 20 -57 51 -53 32 4 35 32 4 36 -27 4
-27 2 -6 47 19 39 25 42 47 19z m75 -87 c-4 -16 -5 -35 -2 -43 3 -8 2 -21 -1
-30 -6 -15 -8 -15 -26 1 -15 13 -17 22 -10 36 6 10 10 35 10 57 0 48 9 59 25
29 7 -13 8 -33 4 -50z m56 5 c2 -43 -1 -62 -10 -62 -6 0 -12 13 -12 31 0 17
-5 34 -12 39 -9 5 -10 10 -2 14 6 4 11 16 11 27 0 12 5 19 11 17 7 -2 13 -31
14 -66z m276 58 c15 0 19 -7 18 -32 0 -31 -1 -32 -11 -10 -7 15 -17 20 -28 17
-12 -4 -19 1 -23 16 -4 15 -2 19 10 15 8 -3 23 -6 34 -6z m-31 -70 c0 -5 -4
-10 -10 -10 -5 0 -10 5 -10 10 0 6 5 10 10 10 6 0 10 -4 10 -10z m-34 -69 c-4
-5 3 -7 14 -4 14 4 20 0 20 -11 0 -9 -7 -16 -16 -16 -11 0 -14 -6 -9 -20 3
-11 3 -20 -2 -20 -16 0 -31 15 -35 35 -2 11 -10 19 -16 18 -21 -5 -13 7 11 17
29 12 39 12 33 1z m108 -30 c3 -5 -1 -14 -10 -21 -11 -10 -18 -10 -27 -1 -9 9
-9 14 3 21 19 12 27 12 34 1z m127 2 c0 -5 2 -18 3 -31 2 -13 -1 -25 -6 -28
-4 -3 -8 1 -8 8 0 7 -3 23 -6 36 -4 13 -2 22 5 22 6 0 11 -3 12 -7z m-339 -43
c-21 -19 -22 -20 -22 -2 0 25 21 45 34 32 7 -7 2 -17 -12 -30z m-45 -55 c9
-22 24 -48 32 -58 9 -11 16 -40 16 -75 1 -31 5 -72 9 -89 6 -23 5 -33 -3 -33
-6 0 -11 6 -11 13 0 31 -23 89 -46 116 -20 25 -23 36 -18 69 3 22 1 56 -6 76
-6 19 -8 41 -3 48 5 9 8 7 11 -7 1 -11 10 -38 19 -60z m203 -30 c-18 -37 -21
-59 -18 -116 l4 -71 -45 6 c-24 3 -46 8 -49 10 -2 2 -6 22 -9 43 -4 29 -1 42
12 53 16 13 17 13 12 -5 -9 -27 6 -48 29 -43 25 4 29 40 9 80 -32 66 24 159
63 105 12 -15 10 -24 -8 -62z m-66 53 c-10 -34 -26 -50 -37 -39 -16 16 1 61
24 61 16 0 19 -4 13 -22z m171 12 c3 -6 -5 -10 -19 -10 -14 0 -28 5 -31 10 -3
6 5 10 19 10 14 0 28 -4 31 -10z m-369 -32 c13 -31 6 -75 -12 -82 -11 -4 -14
1 -12 22 2 17 -1 26 -9 25 -14 -3 -17 15 -7 41 9 23 29 20 40 -6z m408 -44
c-7 -46 -4 -49 44 -47 9 1 12 -13 10 -50 -3 -51 -3 -51 -42 -59 -30 -7 -43 -5
-55 7 -13 13 -13 16 4 28 23 17 14 47 -15 47 -34 0 -18 73 19 83 13 3 21 13
21 27 0 12 4 18 10 15 7 -4 8 -24 4 -51z m-464 -79 c10 -19 11 -30 2 -50 -14
-30 -15 -35 -4 -35 4 0 12 10 17 22 13 27 31 34 39 13 3 -9 2 -13 -3 -10 -5 3
-11 -5 -13 -17 -2 -17 -9 -23 -25 -22 -27 1 -30 -11 -5 -25 9 -6 13 -11 8 -11
-4 0 -1 -11 8 -25 16 -24 16 -25 -4 -25 -11 0 -20 6 -20 13 0 6 -16 32 -35 56
-20 25 -34 47 -33 50 27 60 44 91 49 91 3 0 12 -11 19 -25z m-184 -55 c17 0
23 -4 18 -12 -4 -6 -3 -8 4 -5 5 4 17 4 26 1 14 -5 12 -12 -9 -48 -14 -24 -25
-52 -25 -64 0 -12 -4 -22 -10 -22 -15 0 -12 42 5 84 9 21 11 36 5 36 -5 0 -10
-4 -10 -8 0 -5 -7 -17 -15 -28 -11 -13 -15 -15 -13 -4 2 16 -22 60 -33 60 -3
0 -4 -10 -2 -22 2 -13 -1 -29 -6 -37 -14 -22 -42 4 -33 30 9 24 66 63 70 49 2
-6 15 -10 28 -10z m76 -98 c-18 -15 -32 -33 -32 -39 0 -7 -4 -13 -10 -13 -16
0 -12 21 16 68 24 41 27 43 43 28 15 -16 14 -19 -17 -44z m218 13 c-22 -27
-31 -15 -13 18 13 25 18 28 21 14 2 -10 -2 -24 -8 -32z m-426 5 c3 -17 18 -42
32 -55 24 -23 25 -25 7 -25 -25 0 -58 28 -67 58 -4 12 -12 22 -17 22 -5 0 -2
-14 6 -30 9 -17 13 -40 10 -50 -14 -43 -43 -12 -41 43 1 29 7 41 26 51 36 20
37 19 44 -14z m111 -39 c0 -16 -3 -27 -7 -24 -13 7 -7 53 6 53 1 0 1 -13 1
-29z m149 20 c9 -14 -4 -41 -20 -41 -7 0 -12 -6 -10 -12 1 -7 1 -10 -1 -5 -3
4 -14 7 -26 7 -19 0 -19 2 8 30 30 32 40 36 49 21z m504 -8 c-22 -46 -33 -63
-40 -63 -13 0 -9 24 8 48 14 20 40 32 32 15z m-683 -24 c-7 -10 -35 -1 -35 11
0 5 9 6 20 3 11 -3 17 -9 15 -14z m502 -49 c38 -17 57 -58 43 -95 -5 -14 -17
-25 -25 -25 -12 0 -14 4 -6 19 13 24 -9 45 -38 36 -32 -10 -36 -48 -10 -94 20
-37 21 -44 10 -82 -7 -23 -16 -38 -19 -33 -4 5 -18 11 -32 12 -34 5 -34 5 -14
47 12 27 14 39 6 47 -9 9 -7 16 5 30 12 14 17 38 17 92 1 62 3 72 16 66 8 -4
30 -13 47 -20z m-159 8 c18 -18 14 -27 -11 -24 -36 4 -52 16 -36 27 19 12 33
11 47 -3z m-358 -8 c0 -12 -49 -45 -56 -37 -3 3 -3 15 1 26 6 21 55 31 55 11z
m215 0 c-3 -5 -11 -10 -16 -10 -6 0 -7 5 -4 10 3 6 11 10 16 10 6 0 7 -4 4
-10z m555 -25 c0 -26 -4 -35 -16 -35 -12 0 -15 6 -10 23 3 12 6 28 6 35 0 6 5
12 10 12 6 0 10 -16 10 -35z m-646 9 c9 -3 16 -10 16 -15 0 -12 -77 -12 -84 0
-11 16 37 27 68 15z m93 -46 c-3 -7 -5 -2 -5 12 0 14 2 19 5 13 2 -7 2 -19 0
-25z m-219 -1 c10 -8 9 -14 -4 -28 -16 -18 -17 -18 -30 7 -22 42 -6 52 34 21z
m377 2 c11 -16 -4 -59 -20 -59 -16 0 -18 12 -9 48 7 24 19 29 29 11z m-155
-66 c0 -29 -16 -30 -23 0 -2 12 -8 31 -12 42 -8 20 -8 20 13 1 12 -11 22 -30
22 -43z m-110 12 c0 -13 -4 -27 -10 -30 -6 -4 -10 8 -10 30 0 22 4 34 10 30 6
-3 10 -17 10 -30z m33 -8 c-4 -6 -10 -2 -14 9 -12 31 -9 40 6 20 8 -10 11 -24
8 -29z m34 17 c8 -17 8 -24 1 -22 -13 5 -31 48 -20 48 4 0 12 -12 19 -26z
m-147 8 c0 -15 -41 -52 -58 -52 -13 0 -10 7 13 29 30 30 45 38 45 23z m50 -8
c0 -8 -5 -12 -10 -9 -6 4 -8 11 -5 16 9 14 15 11 15 -7z m-40 -49 c-21 -25
-31 -6 -12 23 14 21 17 23 20 9 2 -10 -2 -24 -8 -32z m276 -14 c-15 -16 -15
-19 -1 -31 8 -7 15 -9 15 -4 0 15 24 -16 27 -35 3 -24 -49 -34 -77 -14 -28 20
-52 70 -45 94 5 16 12 19 40 13 22 -4 35 -1 41 7 6 10 9 10 12 0 2 -6 -3 -20
-12 -30z m-249 7 c-3 -8 -6 -5 -6 6 -1 11 2 17 5 13 3 -3 4 -12 1 -19z m691
-10 c-5 -29 -4 -30 9 -12 13 18 14 17 8 -8 -5 -20 -3 -28 6 -28 9 0 10 -3 3
-8 -16 -11 -24 -50 -10 -55 6 -2 8 -7 5 -11 -4 -4 -13 0 -21 8 -11 11 -18 12
-26 4 -16 -16 -27 -1 -13 16 8 10 9 21 3 33 -9 17 -8 23 9 71 13 34 32 27 27
-10z m-584 -10 c7 -7 15 -20 18 -29 5 -12 1 -15 -18 -11 -17 3 -24 0 -24 -12
0 -12 -9 -16 -36 -16 -24 0 -34 4 -31 13 2 7 16 11 32 9 26 -3 27 -1 22 27 -5
24 -3 31 9 31 8 0 21 -6 28 -12z m216 2 c0 -5 -7 -10 -15 -10 -8 0 -15 5 -15
10 0 6 7 10 15 10 8 0 15 -4 15 -10z m-536 -37 c-4 -16 -10 -50 -14 -78 l-6
-50 -8 36 c-9 40 8 119 25 119 7 0 8 -10 3 -27z m139 14 c10 -6 20 -25 23 -40
7 -41 31 -74 65 -89 40 -18 37 -38 -6 -38 -22 0 -38 -6 -45 -17 -9 -16 -10
-15 -8 7 3 40 -11 70 -34 70 -18 0 -19 -4 -13 -40 6 -35 4 -40 -13 -40 -30 0
-54 33 -46 64 3 14 12 26 19 26 25 0 27 21 6 44 -24 26 -26 37 -9 54 15 15 40
15 61 -1z m591 4 c4 -5 -3 -7 -14 -4 -23 6 -26 13 -6 13 8 0 17 -4 20 -9z
m-33 -38 c21 -12 29 -24 28 -43 -2 -22 -2 -23 -6 -3 -2 12 -11 27 -19 33 -11
10 -14 9 -14 -7 0 -11 -8 -28 -19 -37 -16 -14 -19 -15 -24 -2 -5 13 12 76 21
76 2 0 17 -8 33 -17z m79 -3 c12 -7 10 -9 -8 -7 -12 0 -22 5 -22 9 0 11 12 10
30 -2z m-10 -28 c0 -5 -7 -9 -15 -9 -8 0 -15 4 -15 9 0 4 7 8 15 8 8 0 15 -4
15 -8z m-75 -62 c-3 -5 -3 -10 2 -10 4 0 8 -20 9 -44 1 -40 -1 -43 -17 -33
-13 8 -15 13 -6 19 8 5 5 8 -8 8 -11 0 -30 -12 -44 -27 -23 -27 -24 -28 -18
-4 6 26 -16 57 -33 46 -5 -3 -10 -4 -10 -1 0 2 -3 12 -6 21 -6 15 -4 15 15 3
16 -9 24 -10 29 -2 10 16 52 28 52 15 0 -6 5 -11 10 -11 6 0 10 7 10 15 0 8 5
15 11 15 5 0 7 -4 4 -10z m35 -30 c0 -5 -5 -10 -11 -10 -5 0 -7 5 -4 10 3 6 8
10 11 10 2 0 4 -4 4 -10z m-433 -246 c1 -15 1 -15 -3 -2 -3 9 -11 15 -19 12
-7 -3 -15 -1 -19 4 -3 5 5 8 17 7 14 -1 23 -9 24 -21z m28 6 c3 -5 1 -10 -4
-10 -6 0 -11 5 -11 10 0 6 2 10 4 10 3 0 8 -4 11 -10z m-182 -37 c-11 -32 -15
-35 -24 -22 -13 20 -11 27 9 32 9 3 18 5 19 6 1 0 0 -7 -4 -16z m42 -43 c3 -5
1 -10 -4 -10 -6 0 -11 5 -11 10 0 6 2 10 4 10 3 0 8 -4 11 -10z"/>
<path d="M2180 6686 c0 -2 7 -6 15 -10 8 -3 15 -1 15 4 0 6 -7 10 -15 10 -8 0
-15 -2 -15 -4z"/>
<path d="M2719 8166 c-2 -2 -19 -6 -37 -9 -18 -3 -48 -17 -67 -31 l-34 -26 2
-749 c1 -412 5 -747 9 -745 4 3 8 -4 8 -14 0 -23 22 -34 47 -25 11 4 14 3 9
-5 -4 -7 -13 -12 -19 -12 -12 0 -47 -34 -47 -45 0 -15 20 -2 26 18 6 20 8 20
13 4 14 -40 30 -17 35 48 0 11 6 23 11 28 6 4 1 9 -11 13 -13 3 -21 12 -19 22
3 17 27 18 33 1 2 -5 8 -7 13 -3 5 3 10 0 10 -5 3 -21 4 -26 13 -40 6 -9 5
-12 -1 -8 -5 3 -10 0 -10 -7 0 -8 6 -12 14 -9 7 3 13 11 13 19 0 8 8 14 18 15
9 1 26 2 36 3 11 0 21 7 24 15 3 9 0 11 -8 6 -9 -5 -11 -4 -6 3 10 16 -6 15
-24 0 -12 -11 -12 -10 -2 3 8 11 9 18 0 27 -8 8 -4 13 16 18 29 7 31 14 12 67
-13 35 -13 37 3 25 9 -7 20 -19 24 -26 5 -8 22 -10 49 -7 31 4 44 1 53 -12 11
-15 15 -16 31 -3 11 9 15 10 10 3 -4 -8 -2 -13 6 -14 62 -4 82 -14 58 -29 -13
-8 -12 -10 2 -10 9 0 22 -8 27 -17 6 -11 11 -13 11 -5 0 7 4 11 9 7 9 -5 6
-49 -5 -66 -2 -4 1 -11 7 -15 7 -4 20 2 31 16 14 17 18 19 18 6 0 -9 7 -16 16
-16 10 0 14 6 11 14 -3 7 -1 18 5 24 8 8 4 14 -15 23 -14 6 -31 25 -38 41 -20
49 -59 77 -59 43 0 -8 3 -14 8 -14 21 4 31 -4 41 -33 14 -41 7 -48 -9 -8 -12
30 -35 44 -24 15 12 -32 -6 -13 -24 24 l-19 39 33 -3 c33 -3 46 8 22 18 -7 3
-3 6 10 6 12 1 22 5 22 10 0 13 -43 10 -53 -4 -5 -6 -7 -4 -4 5 2 8 -2 21 -10
28 -14 15 -9 32 10 32 8 0 8 -3 -2 -9 -9 -6 -10 -11 -2 -15 5 -4 19 2 29 12
11 11 25 21 33 24 15 5 3 28 -14 28 -8 0 -8 -3 1 -9 8 -5 0 -8 -23 -9 -36 -1
-47 11 -20 22 8 3 15 0 15 -6 0 -7 5 -6 15 2 8 7 15 19 15 27 0 13 3 13 15 3
9 -7 22 -9 32 -4 10 4 23 8 28 8 6 1 10 11 10 22 1 12 7 29 14 38 9 10 10 16
2 16 -6 0 -11 8 -11 18 0 14 2 14 9 3 7 -11 10 -5 13 22 2 30 6 35 18 27 10
-7 11 -13 5 -17 -6 -5 -12 -21 -13 -37 -1 -17 -8 -33 -14 -37 -7 -5 -10 -11
-6 -14 3 -3 13 1 21 10 9 8 24 15 34 16 16 0 16 1 -2 10 -16 8 -15 8 8 4 19
-4 28 -2 26 7 -1 7 -1 18 0 23 2 17 71 17 97 0 18 -12 24 -12 24 -3 1 7 6 3
14 -10 11 -20 14 -21 25 -9 7 9 8 18 2 21 -5 3 -12 0 -15 -6 -3 -7 -3 6 0 28
4 33 2 43 -11 48 -14 5 -15 9 -5 21 11 13 10 14 -4 9 -17 -7 -19 -53 -2 -65 4
-4 3 -9 -2 -13 -17 -10 -32 28 -23 60 8 32 45 45 65 23 8 -9 8 -10 -1 -5 -19
11 -16 -9 4 -25 10 -8 14 -9 10 -2 -4 7 0 16 10 21 9 6 18 23 18 39 2 34 35
47 35 14 0 -12 5 -21 11 -21 5 0 7 5 4 10 -3 6 1 10 10 10 10 0 14 -5 9 -12
-6 -10 -4 -10 7 0 7 6 20 12 29 12 13 0 13 -1 0 -10 -8 -5 -10 -10 -5 -10 6 0
2 -5 -7 -11 -15 -8 -16 -13 -5 -29 12 -20 12 -20 30 2 10 13 16 16 12 8 -4 -8
3 -4 14 9 12 13 21 28 21 34 0 6 -7 2 -16 -9 -8 -10 -13 -13 -9 -6 3 6 0 12
-7 12 -7 1 -2 8 12 16 14 8 18 13 10 11 -12 -3 -15 5 -15 40 0 26 -6 48 -14
52 -7 5 -11 13 -7 19 3 6 1 23 -5 39 -7 15 -13 33 -14 38 -11 48 -104 235
-161 321 -38 59 -183 234 -193 234 -3 0 -22 15 -41 33 -89 84 -247 170 -354
193 -61 13 -119 18 -127 10z m114 -86 c44 0 23 -16 -23 -18 -53 -2 -77 -15
-117 -60 l-33 -37 0 52 c0 49 2 53 28 59 15 3 32 7 37 10 6 2 26 1 45 -1 19
-3 48 -5 63 -5z m165 -67 c81 -48 83 -50 50 -83 -32 -32 -36 -71 -13 -135 14
-38 9 -54 -17 -55 -15 0 -8 -40 6 -40 19 0 26 -12 31 -51 3 -23 1 -29 -7 -21
-12 12 -38 5 -38 -10 0 -6 7 -16 17 -23 27 -20 6 -38 -36 -30 -66 12 -86 75
-29 91 39 11 45 27 21 51 -18 18 -18 20 -2 48 24 39 34 143 19 189 -6 20 -23
50 -37 66 -31 37 -24 37 35 3z m-135 -60 c12 -24 15 -63 8 -120 -2 -19 -39
-53 -57 -53 -13 0 -12 4 5 26 30 38 43 93 31 134 -12 40 -12 40 -5 40 2 0 11
-12 18 -27z m-73 -19 c18 -47 -17 -111 -41 -73 -13 20 -11 73 3 87 18 18 27
15 38 -14z m150 -4 c10 -19 11 -154 1 -144 -2 2 -10 -5 -18 -16 -8 -11 -19
-20 -25 -20 -7 0 -6 6 2 15 7 8 9 15 4 15 -5 0 -3 4 4 8 19 13 29 142 11 153
-9 6 -10 9 -2 9 7 0 17 -9 23 -20z m347 -182 c-18 -11 -45 -10 -67 4 -16 10
-24 10 -40 0 -18 -11 -70 -8 -70 5 0 2 7 18 16 34 8 17 13 37 10 45 -3 8 -1
14 4 14 6 0 10 12 10 27 0 26 5 23 75 -47 51 -51 71 -77 62 -82z m-607 11 c0
-5 -4 -9 -10 -9 -5 0 -10 7 -10 16 0 8 5 12 10 9 6 -3 10 -10 10 -16z m539
-28 c16 -10 6 -31 -14 -31 -14 0 -27 24 -18 34 8 8 15 7 32 -3z m-81 -13 c-6
-18 -28 -21 -28 -4 0 9 7 16 16 16 9 0 14 -5 12 -12z m-384 -20 c30 -19 35
-29 36 -60 0 -20 -4 -40 -10 -43 -15 -10 -12 -25 6 -25 22 0 12 -23 -15 -35
-16 -7 -21 -16 -18 -32 2 -13 3 -23 1 -23 -1 0 -10 -3 -19 -6 -12 -5 -16 -2
-14 12 5 30 -10 74 -24 74 -7 0 -18 -5 -25 -12 -9 -9 -12 -7 -12 11 0 20 4 22
25 17 15 -4 25 -2 25 4 0 6 4 9 9 5 12 -7 31 26 31 55 0 17 -5 21 -27 18 -21
-2 -27 -8 -25 -22 3 -17 2 -18 -12 -7 -20 17 -20 40 0 69 19 27 24 27 68 0z
m551 -18 c20 -38 19 -52 -2 -48 -24 4 -30 -37 -7 -46 24 -9 54 22 54 56 0 16
4 27 10 23 26 -16 165 -302 195 -402 11 -37 11 -44 -3 -55 -13 -11 -14 -11 -7
1 6 11 1 13 -23 9 -24 -3 -33 0 -37 13 -9 27 -32 41 -78 46 -44 6 -59 17 -50
40 5 12 8 11 23 -2 21 -19 44 -19 59 -1 17 21 8 68 -15 76 -46 16 -87 -21 -89
-81 -1 -39 -15 -59 -42 -59 -15 0 -63 90 -79 148 -13 48 -8 81 15 99 24 18 29
16 23 -12 -7 -38 6 -73 32 -91 22 -14 27 -14 54 0 45 23 55 71 27 125 -15 30
-33 41 -69 41 -42 0 -73 102 -40 134 22 23 31 20 49 -14z m-407 -18 c-2 -10
-12 -16 -25 -15 -12 1 -24 -6 -30 -19 -8 -18 -11 -19 -15 -6 -9 23 16 53 47
56 20 1 26 -2 23 -16z m259 -12 c7 -18 7 -30 1 -32 -5 -2 -10 -18 -10 -36 -1
-17 -6 -32 -13 -32 -9 0 -12 74 -5 128 0 1 4 2 8 2 4 0 13 -13 19 -30z m67
-78 c9 -15 -21 -55 -36 -46 -5 3 -6 18 -3 33 3 15 2 38 -3 52 -7 17 -5 30 7
45 16 21 16 21 21 -25 3 -25 9 -52 14 -59z m-324 27 c0 -5 -4 -9 -10 -9 -5 0
-10 7 -10 16 0 8 5 12 10 9 6 -3 10 -10 10 -16z m20 -71 c0 5 9 8 20 5 22 -6
40 -25 19 -21 -7 2 -15 -6 -17 -17 -4 -20 -19 -35 -35 -35 -5 0 -5 9 -2 20 6
19 -3 25 -28 21 -4 -1 -3 8 3 20 9 16 14 18 26 8 8 -7 14 -7 14 -1z m-220 -47
c0 -33 -15 -49 -23 -27 -7 18 3 56 14 56 5 0 9 -13 9 -29z m145 9 c0 -22 -29
-18 -33 3 -3 14 1 18 15 15 10 -2 18 -10 18 -18z m195 -33 c0 -20 0 -20 -15
-1 -20 27 -20 51 0 34 8 -7 15 -22 15 -33z m54 -9 c-4 -18 -8 -58 -9 -88 -2
-41 -9 -65 -28 -93 -14 -20 -28 -55 -32 -77 -4 -22 -11 -40 -16 -40 -13 0 -11
37 2 45 6 4 9 32 8 64 -2 47 3 65 29 111 18 30 32 67 32 83 0 15 5 27 11 27 8
0 9 -10 3 -32z m-284 -8 c0 -5 -11 -10 -24 -10 -14 0 -28 5 -31 10 -4 6 7 10
24 10 17 0 31 -4 31 -10z m110 -32 c10 -34 9 -48 -6 -80 -20 -44 -11 -73 22
-73 15 0 19 7 17 28 -2 23 1 26 11 17 22 -17 25 -59 7 -81 -11 -14 -31 -21
-59 -23 -38 -3 -42 -1 -36 17 16 50 0 163 -26 191 -15 15 9 46 35 46 20 0 26
-7 35 -42z m42 12 c6 -40 -22 -38 -33 3 -6 22 -4 27 11 27 12 0 19 -9 22 -30z
m204 -12 c4 -14 1 -25 -10 -33 -10 -7 -14 -19 -10 -29 3 -9 1 -16 -5 -16 -17
0 -25 49 -12 76 13 30 27 31 37 2z m-407 -41 c34 -17 42 -77 11 -77 -29 0 -38
-29 -15 -47 17 -12 17 -15 4 -28 -12 -12 -24 -14 -55 -7 -39 8 -39 8 -39 56 0
44 2 49 25 53 35 5 44 17 30 42 -6 12 -8 32 -4 44 l8 22 5 -23 c3 -12 17 -28
30 -35z m466 -103 c26 -44 26 -46 8 -71 -10 -14 -27 -42 -38 -62 -13 -24 -26
-35 -37 -33 -17 3 -26 22 -10 22 4 0 16 16 26 35 16 29 17 41 8 76 -8 31 -7
47 1 60 7 11 13 19 13 19 1 0 14 -21 29 -46z m-50 -62 c6 -19 4 -23 -11 -20
-17 3 -37 51 -26 63 8 8 29 -16 37 -43z m248 31 c4 -3 0 -15 -10 -25 -9 -10
-17 -29 -17 -42 -1 -13 -7 -30 -14 -39 -7 -8 -11 -20 -10 -27 2 -7 -3 -15 -11
-17 -8 -4 -12 0 -8 8 2 8 -8 37 -24 65 -25 45 -27 53 -13 58 23 9 24 8 24 -12
0 -22 27 -62 42 -62 7 0 7 4 0 13 -6 7 -16 25 -21 40 -10 24 -8 29 12 37 27
11 42 12 50 3z m37 -54 c0 -33 -16 -38 -36 -11 -10 14 -10 20 3 34 20 23 33
14 33 -23z m-375 -20 c15 -29 15 -30 -2 -20 -10 5 -19 19 -20 30 -2 29 4 26
22 -10z m215 19 c0 -7 11 -26 24 -43 13 -16 21 -35 19 -42 -7 -17 -23 -17 -23
0 0 6 -14 24 -32 38 -28 23 -30 28 -17 42 17 20 29 21 29 5z m-613 -24 c-3 -3
-12 -4 -19 -1 -8 3 -5 6 6 6 11 1 17 -2 13 -5z m594 -35 c32 -23 41 -56 12
-44 -10 4 -25 9 -35 12 -23 7 -33 53 -10 53 2 0 17 -9 33 -21z m-519 -6 c18
-16 25 -53 10 -53 -5 0 -16 16 -25 35 -18 38 -14 44 15 18z m82 -19 c3 -9 -1
-36 -9 -61 -10 -29 -14 -61 -10 -87 5 -34 2 -47 -19 -74 -14 -19 -22 -41 -19
-50 4 -9 2 -13 -4 -9 -11 7 -22 -23 -28 -71 -5 -36 -45 -73 -45 -41 0 5 5 7
12 3 8 -5 9 2 5 25 -5 22 -2 37 8 47 10 10 13 31 11 72 -3 51 0 63 31 116 21
33 38 77 41 102 5 45 15 56 26 28z m129 -59 c-3 -24 -2 -52 2 -62 5 -10 10
-27 12 -38 2 -11 10 -25 18 -31 18 -13 19 -30 3 -40 -7 -4 -8 -3 -4 4 4 7 2
12 -3 12 -16 0 -13 -20 3 -26 8 -3 12 -13 9 -23 -2 -10 3 -25 12 -35 9 -9 12
-16 6 -16 -10 0 -27 -38 -23 -52 1 -4 -5 -5 -13 -2 -19 8 -19 6 5 34 24 28 20
35 -17 26 -18 -5 -23 -10 -15 -15 10 -6 9 -11 -3 -21 -10 -8 -15 -9 -15 -1 0
6 -4 11 -10 11 -5 0 -7 -7 -3 -16 5 -14 3 -14 -14 -4 -11 7 -26 22 -32 33 -9
14 -9 17 -1 12 9 -6 9 -2 1 13 -8 16 -7 21 6 26 18 7 16 9 32 -22 7 -13 15
-21 18 -18 3 2 -2 19 -11 36 -15 30 -14 34 9 68 30 45 31 59 4 83 -29 25 -52
14 -45 -22 6 -32 -4 -38 -24 -14 -17 21 -15 69 4 97 9 12 16 19 16 15 0 -4 17
2 37 13 21 11 38 20 39 20 1 0 -1 -20 -3 -45z m-289 -7 c6 -31 4 -38 -9 -38
-10 0 -15 10 -15 33 0 19 3 37 7 40 9 9 9 8 17 -35z m456 34 c0 -13 -48 -32
-64 -26 -27 10 -5 34 30 34 19 0 34 -4 34 -8z m-52 -98 c10 -33 9 -35 -11 -32
-17 2 -23 11 -25 36 -4 45 21 42 36 -4z m29 -26 c-3 -8 -6 -5 -6 6 -1 11 2 17
5 13 3 -3 4 -12 1 -19z m53 8 c0 -3 -4 -8 -10 -11 -5 -3 -10 -1 -10 4 0 6 5
11 10 11 6 0 10 -2 10 -4z m-467 -82 c10 -35 -6 -84 -28 -84 -17 0 -22 55 -5
65 6 3 7 18 4 32 -10 37 18 25 29 -13z m170 -9 c-10 -7 -20 -12 -21 -10 -7 7
23 33 31 28 5 -3 0 -11 -10 -18z m-176 -167 c-3 -8 -6 -5 -6 6 -1 11 2 17 5
13 3 -3 4 -12 1 -19z m83 18 c0 -3 -4 -8 -10 -11 -5 -3 -10 -1 -10 4 0 6 5 11
10 11 6 0 10 -2 10 -4z m-80 -46 c0 -5 -4 -10 -10 -10 -5 0 -10 5 -10 10 0 6
5 10 10 10 6 0 10 -4 10 -10z m30 -15 c-7 -9 -15 -13 -18 -10 -3 2 1 11 8 20
7 9 15 13 18 10 3 -2 -1 -11 -8 -20z m414 -11 c9 -3 14 -10 11 -15 -7 -10 -35
0 -35 12 0 11 3 11 24 3z m-394 -14 c0 -5 -4 -10 -10 -10 -5 0 -10 5 -10 10 0
6 5 10 10 10 6 0 10 -4 10 -10z m-110 -31 c-7 -11 -14 -18 -17 -15 -3 3 0 12
7 21 18 21 23 19 10 -6z"/>
<path d="M7990 7976 c-102 -24 -202 -88 -184 -117 3 -5 -1 -6 -8 -4 -9 4 -22
-11 -36 -40 -25 -53 -27 -58 -9 -50 6 4 4 0 -7 -9 -10 -8 -15 -19 -11 -25 3
-6 1 -11 -4 -11 -6 0 -10 -10 -9 -22 0 -13 -3 -41 -7 -62 -6 -32 -5 -37 6 -31
11 6 12 5 2 -6 -18 -19 -16 -55 5 -75 15 -16 15 -17 0 -12 -14 6 -16 -4 -16
-93 -1 -69 3 -99 11 -99 8 0 7 -3 -2 -9 -19 -12 -9 -375 12 -442 29 -90 61
-139 117 -180 61 -44 98 -54 210 -54 101 0 107 1 147 30 23 17 48 41 56 54 16
27 16 26 31 -41 l6 -28 95 0 95 0 1 108 c1 59 2 214 3 344 l1 238 -192 0 -193
0 0 -90 0 -90 60 0 60 0 0 -84 c0 -115 -16 -181 -53 -212 -57 -48 -137 -20
-157 55 -11 43 -15 743 -4 788 17 68 98 94 151 49 27 -23 28 -28 31 -133 l4
-108 144 -1 c165 -1 148 -13 145 106 -2 69 -24 167 -46 210 -26 49 -99 109
-159 130 -73 26 -221 34 -296 16z m-160 -436 c0 -5 -5 -10 -11 -10 -5 0 -7 5
-4 10 3 6 8 10 11 10 2 0 4 -4 4 -10z"/>
<path d="M10040 7981 c-8 -6 -18 -7 -22 -5 -15 9 -122 -27 -158 -53 -72 -53
-93 -87 -124 -196 -14 -48 -17 -111 -16 -395 0 -185 2 -353 4 -372 22 -185 98
-278 253 -314 164 -37 346 -4 420 76 20 21 71 107 71 118 0 3 5 23 11 45 6 22
11 88 11 148 l0 107 -139 0 -138 0 -5 -113 c-7 -162 -32 -200 -123 -183 -58
11 -69 45 -70 216 0 80 -4 150 -7 156 -4 6 -4 14 -1 18 4 4 7 111 8 239 1 197
3 237 18 264 19 35 58 49 107 38 46 -10 62 -51 68 -177 l5 -108 139 0 140 0
-5 123 c-3 73 -11 142 -21 173 -21 66 -74 127 -136 158 -73 37 -253 60 -290
37z"/>
<path d="M4020 7310 l0 -660 300 0 300 0 0 100 0 100 -150 0 -150 0 0 195 0
195 114 0 115 0 -1 100 -1 100 -114 0 -113 0 0 165 0 165 150 0 150 0 0 100 0
100 -300 0 -300 0 0 -660z"/>
<path d="M4846 7955 c-3 -9 -5 -306 -5 -660 l1 -645 129 0 129 0 2 321 3 320
63 -158 c34 -87 91 -230 126 -318 l63 -160 101 -3 102 -3 0 661 0 660 -122 0
-123 0 0 -300 c0 -165 -1 -300 -3 -300 -3 0 -43 89 -91 205 -23 55 -50 118
-61 140 -10 22 -28 65 -40 95 -12 30 -32 78 -46 107 l-24 53 -99 0 c-80 0
-100 -3 -105 -15z"/>
<path d="M5850 7310 l0 -660 298 0 299 0 -1 95 c-1 52 -5 97 -9 101 -4 4 -7 2
-7 -6 0 -10 -3 -10 -14 0 -8 6 -32 11 -53 10 -21 -1 -80 -2 -130 -1 l-93 1 0
195 0 195 115 0 115 0 0 100 0 100 -115 0 -115 0 0 165 0 165 155 0 155 0 -2
100 -2 100 -298 0 -298 0 0 -660z"/>
<path d="M6667 7803 c2 -123 5 -168 15 -174 9 -6 9 -9 1 -9 -8 0 -12 -30 -12
-97 0 -54 0 -125 0 -158 -1 -33 0 -72 3 -87 2 -16 -1 -28 -6 -28 -5 0 -6 -5
-2 -12 4 -7 7 -66 6 -131 -1 -93 1 -117 11 -109 8 7 16 6 25 -4 11 -12 9 -13
-10 -11 -17 1 -24 -4 -26 -20 -3 -17 0 -21 12 -17 9 3 16 1 16 -5 0 -6 -6 -10
-12 -8 -8 1 -14 -11 -16 -30 -3 -31 4 -39 31 -34 5 1 5 -3 2 -9 -4 -6 -13 -9
-21 -6 -10 4 -14 -2 -14 -19 0 -24 29 -42 60 -36 8 2 13 1 10 -1 -44 -33 -44
-33 -35 -19 6 11 4 13 -9 8 -10 -4 -15 -3 -11 3 3 6 2 10 -3 10 -5 0 -9 -20
-10 -45 0 -28 4 -43 10 -39 5 4 5 -3 -2 -16 -19 -35 -6 -52 37 -48 27 3 37 9
39 24 3 18 -1 20 -29 17 -22 -3 -28 -2 -18 5 9 7 10 12 2 16 -6 4 -11 12 -11
17 0 5 10 1 22 -11 16 -15 24 -17 30 -8 6 10 8 10 8 0 0 -7 4 -10 10 -7 6 4 8
-6 6 -24 -2 -17 1 -28 5 -25 5 3 9 12 9 20 0 9 6 22 14 30 13 12 16 12 24 -2
5 -9 12 -15 15 -15 4 1 7 -1 7 -4 -1 -14 26 -30 51 -30 22 -1 26 2 17 12 -5 7
-14 10 -19 7 -18 -11 -28 6 -19 31 7 19 6 23 -5 18 -8 -3 -12 -9 -9 -14 7 -11
-7 -11 -25 0 -7 5 -10 14 -7 20 4 6 2 11 -3 11 -6 0 -11 7 -11 16 0 8 -4 13
-10 9 -5 -3 -7 -12 -4 -20 10 -26 -4 -34 -40 -23 -23 7 -33 15 -29 25 3 8 11
12 17 10 6 -3 20 -8 31 -12 16 -6 17 -5 5 4 -9 7 -10 11 -3 11 6 0 10 9 8 20
-2 13 2 20 11 20 8 0 12 -4 9 -10 -3 -5 -2 -10 4 -10 5 0 13 5 16 10 3 6 1 10
-6 10 -8 0 -7 5 2 17 11 13 11 17 1 20 -6 3 -10 9 -6 14 9 15 21 10 27 -11 6
-24 23 -26 31 -3 4 10 1 20 -9 25 -8 5 -13 13 -10 18 6 10 51 7 62 -3 10 -11
23 -8 23 4 0 5 -4 7 -10 4 -16 -10 -12 7 7 27 9 11 11 18 5 18 -7 0 -12 -4
-12 -10 0 -5 -4 -10 -10 -10 -5 0 -7 7 -4 15 4 10 0 15 -12 15 -15 0 -16 2 -5
9 8 5 22 8 31 6 12 -2 16 6 16 42 0 36 -2 41 -12 29 -6 -9 -10 -27 -8 -41 1
-14 -2 -23 -6 -20 -5 3 -6 13 -3 22 4 11 3 14 -6 9 -7 -5 -10 -14 -7 -21 2 -7
-3 -15 -13 -18 -12 -3 -18 1 -17 12 1 11 -6 15 -24 13 -19 -1 -22 0 -10 8 12
7 10 9 -7 7 -14 -1 -19 -5 -14 -12 5 -5 11 -22 13 -37 4 -23 2 -28 -15 -28
-16 0 -17 3 -8 14 9 11 9 19 0 34 -9 14 -9 24 -1 38 6 10 12 14 12 7 0 -6 9
-9 20 -6 17 5 18 7 6 17 -13 10 -13 13 2 26 14 13 15 12 9 -4 -5 -12 -3 -16 5
-13 8 2 12 19 12 40 -1 21 2 37 7 37 5 0 9 5 9 11 0 6 -7 9 -14 6 -10 -4 -13
-1 -9 9 3 7 0 14 -5 14 -6 0 -10 9 -9 21 1 16 3 18 12 6 5 -8 19 -13 30 -11
19 3 19 2 2 -11 -10 -7 -14 -16 -8 -19 12 -8 43 22 36 35 -4 5 1 9 9 9 12 0
13 6 6 30 -5 19 -5 28 1 25 5 -4 9 3 9 14 0 11 -5 23 -10 26 -6 4 -8 15 -5 25
3 10 1 21 -5 25 -11 7 -4 25 11 25 5 0 9 -11 9 -25 0 -14 5 -25 10 -25 6 0 8
11 4 26 -6 23 -4 25 14 20 21 -7 21 -7 -1 18 -14 16 -24 21 -29 13 -3 -6 -19
-12 -35 -15 l-28 -3 23 21 c12 11 22 24 22 28 0 15 -16 28 -35 27 -13 0 -21 8
-23 23 -4 29 6 28 40 -5 22 -21 28 -23 28 -10 0 9 -6 17 -14 17 -8 0 -18 4
-21 10 -3 6 1 7 9 4 9 -3 16 -1 16 5 0 6 8 8 18 4 10 -4 14 -2 9 3 -10 10 -49
12 -57 3 -3 -3 -18 0 -35 7 -29 13 -29 13 28 14 l57 0 0 48 c0 26 -5 53 -12
60 -8 8 -8 12 -1 12 7 0 10 27 8 73 -2 72 -1 74 22 69 16 -3 23 0 23 12 0 10
-9 16 -22 16 -21 1 -21 2 -5 11 9 5 17 16 17 23 0 19 -30 29 -47 15 -7 -7 -15
-10 -18 -7 -2 2 4 12 15 21 11 9 20 13 20 9 0 -4 5 0 10 8 8 12 11 11 16 -8 6
-21 7 -21 19 -5 7 10 11 22 7 28 -3 5 1 5 9 -1 12 -10 49 -16 49 -8 0 19 -23
54 -40 59 -11 3 -18 10 -15 14 2 5 -6 9 -20 9 l-25 0 25 -20 c14 -11 25 -25
25 -31 0 -7 -5 -4 -11 6 -10 17 -12 17 -23 1 -12 -15 -13 -15 -19 0 -4 11 -1
16 10 16 14 0 14 2 -3 15 -28 21 -39 18 -53 -11 -6 -15 -15 -24 -18 -20 -4 3
-1 12 5 18 18 18 14 32 -5 17 -13 -11 -15 -11 -9 -1 6 10 -3 13 -43 11 -39 -2
-51 -6 -51 -18 -1 -14 -2 -14 -10 1 -8 12 -25 16 -68 17 l-57 0 2 -166z m383
107 c0 -5 -5 -10 -11 -10 -5 0 -7 5 -4 10 3 6 8 10 11 10 2 0 4 -4 4 -10z
m-160 -20 c-7 -4 -9 -13 -5 -19 5 -9 11 -7 21 6 7 10 14 13 14 8 0 -19 -21
-33 -41 -28 -14 4 -16 9 -9 23 5 9 6 20 2 24 -3 4 2 4 12 0 13 -5 14 -9 6 -14z
m-45 0 c3 -6 -1 -7 -9 -4 -18 7 -21 14 -7 14 6 0 13 -4 16 -10z m39 -71 c-6
-11 -24 -2 -24 11 0 5 7 7 15 4 8 -4 12 -10 9 -15z m81 11 c3 -5 1 -10 -4 -10
-6 0 -11 5 -11 10 0 6 2 10 4 10 3 0 8 -4 11 -10z m-55 -50 c0 -14 5 -18 17
-13 15 6 16 5 3 -9 -16 -17 -47 -6 -47 18 0 7 5 10 10 7 6 -4 8 1 4 11 -4 10
-3 15 3 11 6 -3 10 -15 10 -25z m-43 -2 c-3 -8 -6 -5 -6 6 -1 11 2 17 5 13 3
-3 4 -12 1 -19z m17 -39 c-2 -5 -14 -1 -24 9 -26 22 -25 24 5 10 13 -6 22 -15
19 -19z m-111 -24 c-3 -9 -8 -14 -10 -11 -3 3 -2 9 2 15 9 16 15 13 8 -4z
m154 -20 c-4 -24 -2 -33 5 -29 7 4 8 2 4 -5 -4 -6 -11 -9 -16 -6 -5 3 -13 -3
-19 -12 -5 -10 -13 -14 -17 -10 -4 4 3 17 16 30 21 19 22 22 7 25 -9 2 -15 8
-11 13 3 5 10 7 15 4 5 -4 9 1 9 9 0 9 3 16 6 16 4 0 4 -16 1 -35z m-56 1 c5
3 9 -2 9 -12 0 -13 -3 -14 -13 -5 -8 6 -17 8 -20 4 -4 -3 -7 -2 -7 4 0 15 14
26 18 14 2 -6 8 -9 13 -5z m-61 -61 c-7 -8 -17 -15 -23 -15 -6 0 -2 7 9 15 25
19 30 19 14 0z m-44 -22 c-10 -10 -19 5 -10 18 6 11 8 11 12 0 2 -7 1 -15 -2
-18z m158 12 c-4 -10 0 -15 12 -16 16 0 15 -2 -3 -9 -13 -5 -23 -17 -24 -27 0
-11 -3 -13 -6 -5 -3 7 1 19 7 27 10 12 10 15 0 15 -10 0 -10 3 0 15 7 8 14 15
16 15 2 0 1 -7 -2 -15z m-38 -36 c3 -6 -5 -3 -20 6 -14 10 -26 19 -26 22 0 7
39 -17 46 -28z m-35 -28 c-7 -5 -10 -14 -7 -20 4 -6 2 -11 -3 -11 -6 0 -11 5
-11 10 0 6 -8 10 -17 11 -15 0 -15 2 2 9 11 5 27 9 35 9 12 1 13 -1 1 -8z m99
-1 c0 -5 -5 -10 -11 -10 -5 0 -7 5 -4 10 3 6 8 10 11 10 2 0 4 -4 4 -10z
m-177 -84 c4 -10 1 -13 -8 -9 -8 3 -12 9 -9 14 7 12 11 11 17 -5z m-65 -47
c-3 -8 -7 -3 -11 10 -4 17 -3 21 5 13 5 -5 8 -16 6 -23z m206 -22 c4 4 4 0 0
-10 -8 -22 -24 -22 -24 0 0 13 -3 14 -11 6 -9 -9 -16 -9 -30 0 -18 11 -18 12
3 23 19 10 25 9 39 -7 9 -10 19 -15 23 -12z m-129 2 c-4 -5 -8 -19 -10 -30 -3
-12 -7 -24 -10 -28 -4 -3 -3 8 0 24 4 17 7 35 7 42 1 7 5 10 10 7 5 -3 6 -10
3 -15z m-70 -28 c3 -5 2 -12 -3 -15 -5 -3 -9 1 -9 9 0 17 3 19 12 6z m171 -28
c-7 -7 -46 16 -46 28 0 5 11 2 25 -7 14 -9 24 -19 21 -21z m-76 -4 c0 -5 -4
-9 -10 -9 -5 0 -10 7 -10 16 0 8 5 12 10 9 6 -3 10 -10 10 -16z m-80 -20 c0
-5 -4 -9 -8 -9 -5 0 -9 7 -9 15 0 8 4 12 9 9 4 -3 8 -9 8 -15z m160 -9 c17
-17 18 -21 5 -26 -18 -7 -20 -34 -3 -34 9 0 9 -3 0 -12 -14 -14 -25 -5 -28 25
-4 33 -4 33 -14 17 -5 -8 -12 -11 -17 -7 -12 12 20 27 33 16 8 -6 14 -6 18 -1
3 6 -1 12 -9 16 -8 3 -15 10 -15 16 0 15 8 12 30 -10z m-74 -2 c3 -4 -1 -5
-10 -4 -8 1 -18 5 -22 8 -3 4 1 5 10 4 8 -1 18 -5 22 -8z m124 -2 c0 -3 -4 -8
-10 -11 -5 -3 -10 -1 -10 4 0 6 5 11 10 11 6 0 10 -2 10 -4z m-233 -13 c-4 -3
-2 -11 3 -18 7 -8 5 -12 -4 -12 -8 0 -12 7 -11 16 5 22 4 21 12 21 3 0 3 -3 0
-7z m78 -13 c-3 -5 -12 -10 -18 -10 -7 0 -6 4 3 10 19 12 23 12 15 0z m155
-33 c0 -7 -4 -6 -11 3 -8 11 -9 8 -5 -15 5 -22 4 -26 -4 -15 -8 12 -10 13 -10
1 0 -8 -2 -12 -5 -9 -9 9 14 59 25 53 5 -3 10 -12 10 -18z m-155 3 c-3 -5 -11
-10 -16 -10 -6 0 -7 5 -4 10 3 6 11 10 16 10 6 0 7 -4 4 -10z m64 -11 c-16
-10 -23 -4 -14 10 3 6 11 8 17 5 6 -4 5 -9 -3 -15z m-24 -18 c3 -5 1 -12 -5
-16 -5 -3 -10 1 -10 9 0 18 6 21 15 7z m-34 -34 c-10 -9 -11 -8 -5 6 3 10 9
15 12 12 3 -3 0 -11 -7 -18z m-53 -10 c13 5 14 3 5 -7 -13 -14 -33 -5 -32 13
0 9 2 9 5 0 3 -7 13 -9 22 -6z m72 -30 c0 -5 -7 -4 -15 3 -8 6 -18 9 -23 6 -5
-3 -9 1 -9 8 0 11 5 12 24 3 13 -5 23 -15 23 -20z m-52 -15 c12 -8 22 -12 22
-8 0 3 9 -2 20 -11 11 -9 17 -19 15 -21 -3 -3 -11 1 -19 7 -8 7 -21 9 -27 5
-7 -4 -10 -3 -6 2 3 5 -6 14 -19 21 -13 6 -22 7 -19 3 3 -5 1 -11 -5 -15 -5
-3 -10 -15 -10 -25 0 -10 -4 -21 -9 -24 -11 -7 -2 34 11 51 5 7 5 14 -2 18 -5
3 -10 10 -10 15 0 11 25 3 58 -18z m72 -2 c0 -5 -5 -10 -11 -10 -5 0 -7 5 -4
10 3 6 8 10 11 10 2 0 4 -4 4 -10z m36 -54 c2 -14 1 -14 -3 0 -3 9 -11 13 -19
10 -9 -3 -12 -1 -9 5 10 15 30 5 31 -15z m-16 -25 c0 -8 -3 -11 -7 -8 -3 4
-13 1 -22 -5 -9 -7 -13 -8 -9 -4 4 5 3 15 -2 22 -8 9 -4 12 15 10 14 0 25 -7
25 -15z m-129 -44 c-7 -7 -12 -7 -11 -2 5 22 -1 27 -15 15 -17 -14 -21 0 -4
17 9 9 16 8 27 -3 11 -12 12 -18 3 -27z m87 -59 c2 -9 -7 -19 -20 -23 -19 -6
-20 -8 -5 -12 9 -2 17 -8 17 -12 0 -10 -22 -31 -34 -31 -6 0 -5 5 2 12 8 8 8
15 1 24 -12 14 -52 6 -42 -9 3 -6 1 -7 -6 -3 -8 6 -9 12 -2 20 7 9 7 16 -1 24
-12 12 8 12 29 -1 7 -4 14 0 18 12 7 22 39 21 43 -1z m100 -46 c-11 -13 -11
-14 2 -7 12 6 13 5 3 -5 -9 -10 -16 -10 -25 -2 -14 11 -54 -9 -41 -21 3 -4 2
-7 -3 -7 -12 0 -34 21 -34 32 0 4 8 8 18 8 9 1 28 7 41 14 33 18 57 10 39 -12z
m-88 -41 c0 -6 -5 -13 -10 -16 -6 -4 -8 -16 -4 -27 4 -13 2 -18 -4 -14 -6 3
-12 1 -14 -4 -5 -15 -85 -1 -92 16 -3 8 -1 14 4 14 6 0 10 -5 10 -10 0 -6 14
-9 30 -8 23 2 30 7 30 23 0 15 2 17 9 6 7 -11 10 -9 16 8 6 21 25 30 25 12z
m-70 -25 c0 -3 -4 -8 -10 -11 -5 -3 -10 -1 -10 4 0 6 5 11 10 11 6 0 10 -2 10
-4z m24 -71 c-4 -8 -10 -12 -15 -9 -11 6 -2 24 11 24 5 0 7 -7 4 -15z m-34
-99 c0 -2 -7 -6 -15 -10 -8 -3 -15 -1 -15 4 0 6 7 10 15 10 8 0 15 -2 15 -4z"/>
<path d="M7030 7959 c0 -5 9 -9 19 -9 11 0 22 4 25 9 3 5 -6 9 -19 9 -14 0
-25 -4 -25 -9z"/>
<path d="M7096 7946 c4 -16 0 -25 -11 -30 -14 -5 -15 -9 -5 -20 9 -12 7 -17
-8 -25 -10 -5 -28 -7 -40 -4 -26 6 -38 -29 -23 -70 10 -26 31 -37 31 -16 0 5
-6 7 -12 3 -7 -4 -10 -4 -6 1 4 4 2 15 -5 24 -9 12 -7 11 13 -2 39 -27 46 -20
12 13 -21 19 -26 30 -17 30 8 0 15 -4 15 -10 0 -5 5 -10 11 -10 5 0 7 5 3 12
-4 7 -3 8 4 4 7 -4 12 -2 12 5 0 10 3 10 12 1 14 -14 58 -16 58 -3 0 5 -6 11
-12 14 -10 3 -10 8 -2 17 9 8 17 9 31 2 29 -16 46 -1 34 31 -11 28 -23 37 -20
15 4 -35 -1 -41 -19 -25 -10 10 -23 17 -28 17 -5 0 -4 -4 3 -8 9 -5 6 -11 -9
-21 -18 -11 -20 -11 -14 4 3 9 6 26 6 36 0 14 4 18 13 12 18 -11 37 -12 37 -2
0 5 -1 9 -3 9 -1 0 -17 4 -35 9 -30 9 -32 8 -26 -13z"/>
<path d="M8943 7933 c-6 -21 -11 -45 -10 -53 0 -8 -5 -40 -12 -70 -11 -54 -22
-111 -42 -220 -6 -30 -16 -86 -24 -125 -8 -38 -19 -95 -25 -125 -6 -30 -20
-104 -32 -165 -11 -60 -21 -117 -20 -125 0 -8 -4 -28 -9 -45 -5 -16 -11 -46
-13 -65 -2 -19 -9 -55 -15 -80 -5 -25 -15 -74 -21 -110 -7 -36 -14 -73 -17
-82 -4 -17 7 -18 135 -18 l140 0 12 68 c7 37 14 85 17 107 2 22 7 54 11 70 l8
30 96 3 96 3 5 -43 c3 -24 7 -56 11 -73 3 -16 8 -52 11 -80 10 -91 0 -85 151
-85 124 0 135 1 130 18 -3 9 -7 28 -9 42 -22 130 -40 220 -46 220 -3 0 -6 17
-7 38 -1 41 -13 132 -19 142 -2 4 -8 33 -14 66 -5 32 -17 95 -25 139 -8 44
-17 94 -20 110 -3 17 -11 55 -16 85 -6 30 -15 78 -20 105 -5 28 -14 73 -20
100 -6 28 -12 61 -14 75 -8 62 -27 164 -32 172 -3 4 -78 8 -168 8 l-163 0 -10
-37z m191 -419 c6 -61 33 -263 43 -324 15 -82 10 -90 -57 -90 -32 0 -61 4 -65
9 -5 9 4 85 29 231 8 45 9 80 4 87 -5 6 -5 14 0 17 5 3 12 29 16 58 12 85 24
90 30 12z"/>
<path d="M10740 7310 l0 -660 300 0 300 0 0 100 0 100 -155 0 -155 0 0 195 0
195 120 0 120 0 0 100 0 100 -120 0 -120 0 0 165 0 165 155 0 155 0 0 100 0
100 -300 0 -300 0 0 -660z"/>
<path d="M7207 7936 c-3 -8 1 -17 10 -20 10 -4 13 -14 9 -31 -4 -14 -2 -25 4
-25 5 0 10 9 10 19 0 14 5 18 20 14 11 -3 20 -10 20 -15 0 -6 7 -7 16 -4 8 3
12 2 9 -4 -3 -6 -2 -10 4 -10 5 0 11 3 14 8 2 4 2 1 0 -6 -1 -8 -3 -20 -3 -28
0 -9 -5 -12 -10 -9 -6 4 -17 1 -25 -5 -20 -17 -19 -5 1 14 14 15 14 17 -3 23
-10 4 -21 11 -24 16 -3 5 -9 2 -12 -7 -4 -10 -1 -16 9 -16 10 0 13 -7 8 -25
-4 -18 -1 -27 11 -31 9 -4 20 -3 24 3 3 5 14 13 25 16 10 4 16 13 13 21 -3 8
1 17 8 20 11 4 14 -2 11 -23 -4 -35 -13 -51 -31 -51 -7 0 -16 -6 -19 -12 -5
-10 -7 -10 -12 -1 -3 7 -12 9 -20 6 -9 -3 -14 1 -14 12 0 10 -5 13 -12 9 -8
-5 -9 -2 -4 11 4 12 -1 26 -15 42 -28 28 -44 30 -46 3 -1 -13 2 -18 9 -14 8 5
9 1 5 -10 -4 -10 -7 -20 -7 -22 0 -2 -4 -4 -10 -4 -5 0 -14 18 -20 40 -6 22
-16 40 -22 40 -7 0 -7 -4 -1 -12 6 -7 13 -30 17 -50 6 -33 5 -37 -10 -31 -12
4 -15 3 -10 -6 6 -8 0 -10 -21 -7 -26 5 -26 5 4 -5 26 -10 35 -8 57 7 14 11
26 25 26 32 0 7 4 10 10 7 6 -4 7 1 3 12 -6 16 -5 16 10 4 13 -10 15 -17 6
-27 -9 -11 -8 -14 0 -14 7 0 9 -5 5 -12 -4 -6 -3 -8 3 -5 6 4 16 0 23 -8 7 -8
27 -14 46 -13 24 1 31 4 22 11 -9 6 -7 7 7 2 11 -3 16 -3 12 1 -8 9 11 34 27
34 6 0 4 -5 -4 -10 -8 -5 -11 -10 -7 -10 4 0 -4 -16 -19 -35 -14 -19 -21 -35
-15 -35 6 0 18 11 27 25 9 14 20 22 26 19 5 -3 -3 -17 -17 -30 -24 -22 -24
-29 -2 -25 5 1 6 -3 2 -9 -5 -8 -11 -8 -20 0 -11 9 -16 6 -26 -12 -11 -20 -10
-21 2 -11 9 7 20 8 28 3 8 -4 21 -6 30 -3 13 4 13 3 2 -5 -8 -6 -21 -8 -30 -5
-13 4 -13 3 -2 -5 8 -6 19 -8 25 -6 6 2 17 -9 23 -26 11 -29 11 -30 -20 -26
-30 4 -32 3 -32 -30 0 -19 3 -34 8 -34 4 0 14 0 22 0 9 0 16 10 16 28 2 23 2
24 6 4 3 -13 9 -20 16 -16 7 3 1 -3 -13 -14 -13 -11 -28 -18 -32 -16 -4 3 -8
-9 -8 -27 l0 -32 -22 19 c-12 10 -18 13 -14 7 4 -7 2 -13 -3 -13 -16 0 -13
-27 3 -33 7 -3 19 0 25 6 8 8 11 8 11 -1 0 -7 -4 -12 -10 -12 -5 0 -10 -5 -10
-10 0 -7 7 -7 20 0 11 6 18 15 15 20 -4 6 1 7 11 3 13 -5 16 -2 12 9 -5 13 -3
14 18 4 13 -6 25 -18 27 -26 2 -9 5 -6 9 8 4 13 4 21 1 18 -8 -8 -63 33 -63
47 0 7 6 4 14 -5 10 -14 15 -15 26 -5 10 9 11 9 6 0 -5 -9 -2 -11 8 -7 8 3 15
13 15 22 0 9 3 39 6 66 5 45 -7 82 -24 72 -4 -3 -13 -1 -20 3 -9 6 -10 11 -2
15 6 4 11 1 11 -6 0 -9 3 -9 10 2 6 10 10 11 10 3 0 -7 4 -13 9 -13 12 0 7 61
-8 87 -5 11 -7 24 -3 28 4 5 1 5 -5 1 -9 -5 -13 1 -13 18 0 14 -5 28 -12 32
-8 5 -9 1 -4 -12 6 -15 5 -16 -5 -7 -7 7 -14 23 -15 35 -2 13 0 17 2 11 3 -7
10 -13 16 -13 6 0 6 6 -2 15 -7 8 -16 13 -20 10 -4 -3 -19 4 -31 15 -18 14
-20 20 -9 21 8 0 4 4 -10 8 -14 4 -27 4 -30 -1 -7 -10 -80 10 -80 22 0 18 19
20 29 3 5 -10 13 -14 17 -10 9 9 -25 36 -47 37 -9 0 -19 -6 -22 -14z m233
-211 c0 -17 -35 -20 -46 -4 -4 8 0 9 15 4 12 -4 21 -2 21 4 0 6 2 11 5 11 3 0
5 -7 5 -15z m-30 -46 c0 -4 -7 -6 -15 -3 -8 4 -15 10 -15 15 0 4 7 6 15 3 8
-4 15 -10 15 -15z m47 15 c-3 -3 -12 -4 -19 -1 -8 3 -5 6 6 6 11 1 17 -2 13
-5z m-22 -96 c-5 -24 -25 -49 -25 -31 0 7 4 14 9 17 5 3 7 16 3 28 -3 14 -1
19 6 14 6 -3 9 -16 7 -28z m20 -28 c3 -5 1 -10 -4 -10 -6 0 -11 5 -11 10 0 6
2 10 4 10 3 0 8 -4 11 -10z"/>
<path d="M7065 7830 c-9 -14 -6 -17 24 -22 14 -2 26 3 29 11 3 10 0 12 -13 7
-10 -4 -22 -2 -25 5 -6 8 -9 8 -15 -1z"/>
<path d="M7176 7764 c-21 -21 -20 -30 1 -13 15 12 16 12 10 -3 -4 -12 -2 -18
8 -18 9 0 12 6 9 15 -4 8 -1 15 5 15 6 0 11 5 11 10 0 15 -27 12 -44 -6z"/>
<path d="M7252 7738 c2 -7 -5 -12 -15 -11 -15 1 -17 -4 -13 -22 6 -23 -15 -51
-27 -38 -10 10 -8 -10 3 -27 8 -13 10 -13 10 1 0 9 7 19 15 23 8 3 15 14 15
25 0 11 5 23 12 27 8 5 9 2 5 -9 -3 -10 -3 -17 1 -17 5 0 8 -11 8 -25 0 -18
-3 -22 -13 -14 -15 13 -33 3 -33 -17 0 -8 4 -13 9 -10 5 3 11 -5 13 -19 3 -14
0 -26 -8 -29 -8 -3 -14 -11 -14 -18 0 -9 3 -8 10 2 5 8 10 10 10 4 0 -6 16
-18 36 -27 19 -10 33 -14 31 -10 -2 5 -1 17 4 28 7 16 8 15 6 -10 -1 -22 -6
-29 -19 -27 -11 2 -18 -3 -18 -13 0 -9 -13 -29 -29 -44 -27 -27 -28 -30 -15
-50 9 -12 19 -19 23 -17 4 3 7 -5 6 -17 -2 -26 -18 -26 -25 0 -4 14 -17 19
-60 20 -30 2 -79 5 -107 7 -52 5 -81 -7 -43 -17 11 -3 20 -1 20 3 0 5 8 7 18
5 9 -1 16 -8 14 -15 -2 -9 6 -11 28 -7 31 7 42 -6 15 -17 -8 -3 -15 -12 -15
-21 0 -8 -5 -15 -11 -15 -6 0 -8 9 -4 21 5 15 4 19 -4 15 -6 -4 -11 -14 -11
-22 0 -13 -10 -17 -27 -11 -4 1 -7 13 -7 26 -1 18 -8 26 -27 31 -18 5 -26 4
-26 -6 0 -13 10 -18 28 -16 4 1 5 -8 2 -19 -3 -12 -11 -18 -19 -15 -20 8 -17
-11 4 -23 15 -9 9 -13 -14 -10 -8 1 -24 -22 -24 -34 0 -5 5 -5 10 -2 6 3 10 1
10 -5 0 -6 5 -8 10 -5 6 4 8 10 5 15 -3 4 6 7 20 6 15 0 25 -7 25 -16 0 -13 1
-13 10 0 10 16 -5 31 -24 24 -6 -2 -11 7 -11 21 0 25 9 33 19 16 7 -11 56 -21
56 -11 0 4 14 21 31 38 18 18 28 35 24 42 -6 9 -2 9 14 1 12 -7 26 -9 32 -5 6
3 20 -3 32 -14 12 -11 29 -22 37 -26 8 -3 3 -4 -11 -1 -23 4 -26 1 -24 -18 2
-14 -2 -24 -11 -24 -7 0 -12 3 -12 6 1 3 -3 15 -7 25 -6 13 -4 21 3 24 7 2 10
7 7 12 -6 10 -65 -18 -65 -31 0 -5 5 -9 11 -9 5 0 7 5 4 10 -3 6 0 10 7 10 7
0 19 -9 26 -20 7 -11 8 -20 2 -20 -5 0 -7 -7 -4 -15 4 -8 10 -12 15 -9 5 3 9
-5 9 -18 0 -17 -3 -19 -9 -10 -7 12 -14 11 -39 -2 -21 -11 -33 -12 -37 -5 -4
6 -13 8 -21 5 -28 -11 -13 13 16 26 41 18 38 28 -7 18 -20 -5 -41 -6 -46 -3
-5 3 -5 -2 1 -12 7 -13 6 -25 -2 -38 -8 -15 -8 -21 2 -24 10 -4 8 -9 -5 -19
-10 -7 -13 -14 -6 -14 6 0 11 -8 11 -17 0 -10 3 -27 7 -37 6 -13 5 -17 -2 -13
-6 4 -4 -15 5 -42 11 -32 25 -54 40 -60 12 -6 22 -18 22 -28 0 -14 -3 -14 -20
5 -22 24 -40 31 -21 9 6 -8 8 -17 4 -20 -3 -4 -1 -7 5 -7 7 0 10 -12 8 -29 -4
-33 1 -43 29 -60 18 -11 18 -12 1 -7 -15 5 -17 3 -12 -16 4 -13 8 -33 10 -46
2 -13 8 -28 15 -35 15 -15 14 -30 -1 -21 -10 6 -10 4 0 -7 6 -7 12 -22 12 -33
0 -19 1 -19 16 -4 13 13 14 20 4 38 -7 12 -8 20 -2 16 5 -3 13 6 16 19 4 16
11 23 18 19 9 -6 8 -9 -2 -12 -9 -3 -5 -9 11 -19 19 -11 20 -13 4 -9 -16 5
-20 1 -21 -18 -1 -17 2 -23 12 -19 10 4 12 0 8 -11 -3 -9 -15 -16 -25 -16 -10
0 -19 -3 -20 -7 0 -5 -2 -16 -4 -25 -2 -10 1 -18 6 -18 5 0 9 6 9 14 0 25 22
30 39 10 9 -10 24 -20 35 -22 14 -3 18 1 13 17 -3 13 -1 18 9 14 7 -2 10 -11
7 -19 -4 -11 6 -14 46 -14 51 0 61 6 40 27 -8 8 -8 13 0 18 6 3 11 3 10 -2 -6
-25 15 -43 47 -41 29 2 33 5 28 21 -6 19 -12 45 -13 60 -1 4 -9 7 -18 7 -14 0
-15 2 -5 9 11 6 11 17 2 50 -6 22 -15 41 -20 41 -5 0 -7 7 -4 15 3 8 2 20 -2
27 -5 7 -9 18 -11 23 -10 46 -13 59 -18 75 -3 10 -8 27 -10 37 -2 10 -10 34
-19 54 -8 20 -13 39 -10 41 2 3 -2 18 -10 33 -8 15 -12 34 -9 41 3 9 -2 14
-13 14 -15 0 -16 2 -5 9 8 5 9 11 3 15 -5 3 -9 20 -8 38 2 18 -2 39 -7 46 -7
9 -4 12 12 13 11 1 26 3 31 4 6 1 15 3 20 4 6 0 10 8 10 17 0 8 3 13 8 11 4
-3 13 1 20 9 7 8 9 14 5 14 -4 0 -1 5 7 10 11 7 11 10 2 10 -7 0 -11 4 -8 8 2
4 1 14 -5 22 -6 11 -9 12 -9 2 0 -7 -4 -10 -10 -7 -5 3 -10 -1 -10 -9 0 -8 5
-18 10 -21 6 -3 10 -12 9 -18 0 -9 -2 -9 -5 0 -3 7 -12 9 -20 6 -8 -3 -14 0
-14 7 0 6 5 8 12 4 7 -4 8 -3 4 5 -4 6 -16 9 -27 6 -13 -4 -19 -2 -19 9 0 8
-9 17 -19 21 -18 5 -18 8 -4 45 9 22 19 37 23 35 4 -3 6 20 5 50 -4 59 -3 60
26 45 15 -8 19 -7 19 4 0 8 -13 18 -28 24 -26 9 -28 7 -30 -16 -2 -30 -24 -82
-34 -82 -8 0 -5 27 4 36 4 3 4 13 1 22 -4 10 -2 13 5 8 8 -5 10 -1 5 11 -6 15
-10 11 -21 -19 -8 -21 -18 -38 -23 -38 -4 0 -1 12 6 27 13 25 13 28 -2 34 -15
5 -15 6 1 12 10 4 14 12 10 19 -6 10 -4 11 7 1 18 -18 30 -16 23 2 -4 8 -13
15 -21 15 -8 0 -12 4 -8 10 3 5 12 7 20 3 8 -3 15 0 15 5 0 6 -9 9 -20 7 -15
-3 -20 2 -20 20 0 13 -5 27 -10 30 -6 4 -9 1 -8 -7z m25 -304 c-3 -3 -12 -4
-19 -1 -8 3 -5 6 6 6 11 1 17 -2 13 -5z m37 -13 c3 -5 -2 -15 -11 -22 -12 -10
-14 -10 -9 -1 4 7 2 12 -6 12 -9 0 -9 3 2 10 18 12 18 12 24 1z m22 -40 c8 6
14 7 14 2 0 -5 -14 -17 -31 -27 -18 -11 -29 -14 -25 -7 4 6 2 11 -5 11 -7 0
-4 6 7 14 11 8 21 10 22 5 3 -6 10 -5 18 2z m4 -41 c0 -5 -5 -10 -11 -10 -5 0
-7 5 -4 10 3 6 8 10 11 10 2 0 4 -4 4 -10z m-46 -47 c4 -22 -12 -45 -26 -37
-5 3 -5 11 2 19 6 7 10 17 9 21 -1 5 -1 13 0 18 2 14 12 0 15 -21z m-48 -21
c-2 -4 2 -16 10 -27 8 -10 14 -15 14 -11 0 5 7 3 15 -4 8 -7 15 -21 15 -31 0
-11 5 -19 11 -19 6 0 3 -7 -5 -16 -19 -18 -19 -21 -6 -29 6 -4 10 -3 9 2 -4
22 3 24 21 8 25 -22 26 -35 3 -35 -15 0 -16 2 -3 10 13 8 12 10 -2 10 -10 0
-18 -6 -18 -12 0 -7 -5 -5 -11 5 -13 21 -28 22 -44 0 -8 -10 -17 -13 -26 -7
-19 11 -39 16 -70 15 -30 -1 -61 26 -38 33 8 2 22 7 31 10 10 3 22 -2 27 -12
6 -9 11 -12 11 -5 0 6 9 9 20 6 11 -3 18 -8 16 -12 -3 -4 -1 -12 3 -19 4 -8
11 -5 19 8 10 17 10 20 -3 20 -8 0 -15 5 -15 11 0 5 5 7 10 4 15 -9 12 4 -5
21 -18 18 -20 44 -4 44 6 0 9 6 6 14 -3 8 -3 17 0 20 9 9 15 7 9 -2z m-114
-57 c4 -21 3 -23 -13 -15 -23 13 -35 32 -15 24 9 -3 16 -1 16 5 0 20 8 12 12
-14z m75 10 c-4 -8 -2 -17 3 -20 13 -8 13 -35 0 -35 -5 0 -7 7 -4 15 4 8 1 15
-5 15 -6 0 -11 7 -11 15 0 13 -4 14 -22 5 -22 -11 -22 -10 -4 4 25 20 50 21
43 1z m-96 -49 c-6 -7 -9 -21 -5 -30 3 -9 1 -16 -5 -16 -6 0 -10 13 -9 30 1
18 8 30 16 30 11 0 12 -3 3 -14z m179 -56 c0 -5 -5 -10 -11 -10 -5 0 -7 5 -4
10 3 6 8 10 11 10 2 0 4 -4 4 -10z m-135 -9 c-3 -5 -1 -12 4 -15 5 -4 12 -2
16 4 14 23 23 8 10 -17 -13 -25 -45 -41 -45 -22 0 4 -6 6 -14 3 -7 -3 -16 1
-19 10 -3 8 1 17 9 20 9 3 12 1 9 -4 -3 -6 0 -10 8 -10 10 0 13 7 10 20 -3 12
0 20 6 20 7 0 10 -4 6 -9z m55 -36 c0 -8 -4 -15 -10 -15 -5 0 -7 7 -4 15 4 8
8 15 10 15 2 0 4 -7 4 -15z m54 -10 c-4 -8 -1 -15 5 -15 6 0 11 -14 11 -31 0
-16 -4 -28 -9 -25 -5 3 -7 15 -4 26 6 21 -11 28 -23 8 -4 -6 -7 -27 -6 -46 1
-31 -1 -34 -22 -28 -27 7 -56 -1 -56 -16 0 -5 5 -6 10 -3 6 3 10 2 10 -3 0 -6
8 -8 19 -5 10 3 22 -1 27 -8 5 -9 2 -11 -9 -6 -10 3 -17 2 -17 -4 0 -6 -4 -7
-10 -4 -6 4 -7 -1 -4 -12 5 -17 5 -17 -9 -1 -8 10 -17 15 -20 11 -4 -3 -7 8
-7 25 0 18 5 32 10 32 6 0 10 7 10 15 0 14 3 13 25 -1 14 -9 28 -14 31 -11 3
3 -4 8 -15 12 -12 3 -21 11 -21 16 0 5 -8 9 -18 9 -10 0 -29 11 -42 25 -13 14
-18 25 -12 25 7 0 12 -4 12 -10 0 -5 7 -10 15 -10 8 0 15 -4 15 -9 0 -5 10 -7
22 -3 12 3 17 7 10 10 -18 6 -15 22 4 22 12 0 15 -7 12 -30 -3 -19 -1 -29 6
-27 6 3 10 10 8 16 -1 7 4 19 12 27 9 8 13 21 10 29 -4 9 0 15 10 15 10 0 13
-6 10 -15z m91 5 c3 -5 1 -10 -4 -10 -6 0 -11 5 -11 10 0 6 2 10 4 10 3 0 8
-4 11 -10z m-5 -30 c0 -5 -2 -10 -4 -10 -3 0 -8 5 -11 10 -3 6 -1 10 4 10 6 0
11 -4 11 -10z m-40 -30 c0 -5 -2 -10 -4 -10 -3 0 -8 5 -11 10 -3 6 -1 10 4 10
6 0 11 -4 11 -10z m35 -16 c-11 -8 -20 -19 -20 -24 0 -4 -3 -12 -7 -16 -10 -9
-10 18 0 32 6 10 28 22 42 23 3 0 -4 -6 -15 -15z m-60 -16 c5 4 5 2 1 -5 -8
-14 -36 -6 -36 9 0 7 5 6 13 -1 8 -6 18 -7 22 -3z m79 -3 c-4 -8 -11 -12 -16
-9 -6 4 -5 10 3 15 19 12 19 11 13 -6z m-14 -35 c0 -5 -5 -10 -11 -10 -5 0 -7
5 -4 10 3 6 8 10 11 10 2 0 4 -4 4 -10z m-27 -29 c24 -15 26 -19 12 -25 -11
-4 -15 -13 -12 -26 3 -12 1 -18 -5 -14 -5 3 -7 17 -4 30 5 17 2 24 -8 24 -8 0
-16 7 -20 15 -7 20 3 19 37 -4z m78 -35 c12 -13 11 -26 -1 -26 -5 0 -9 6 -7
13 2 13 -6 13 -35 2 -11 -4 -18 -3 -18 4 0 6 5 10 12 9 7 -2 17 7 23 20 9 20
10 21 13 5 2 -10 8 -22 13 -27z m-168 17 c-7 -2 -19 -2 -25 0 -7 3 -2 5 12 5
14 0 19 -2 13 -5z m52 -3 c3 -5 -1 -10 -9 -10 -8 0 -18 5 -21 10 -3 6 1 10 9
10 8 0 18 -4 21 -10z m0 -22 c6 -1 12 -13 13 -26 2 -24 1 -24 -16 -9 -21 19
-42 22 -42 6 0 -5 4 -8 9 -4 6 3 9 -4 8 -15 -1 -19 -1 -19 -22 0 -12 11 -25
20 -31 20 -5 0 -2 -4 6 -10 12 -8 12 -10 -3 -15 -17 -7 -47 15 -47 34 0 18 34
30 75 25 22 -3 45 -6 50 -6z m110 -69 c-13 -14 -22 -16 -31 -9 -8 8 -14 7 -17
-2 -3 -7 -5 0 -4 15 1 27 2 27 17 7 12 -16 18 -18 28 -8 6 6 12 19 13 28 0 11
2 11 6 2 3 -7 -3 -22 -12 -33z m-78 11 c-1 -11 -7 -22 -15 -25 -8 -3 -12 -12
-9 -20 4 -9 1 -12 -9 -8 -16 6 -19 23 -4 23 6 0 10 5 10 10 0 9 20 38 27 40 1
0 1 -9 0 -20z m-122 -20 c-3 -5 -11 -10 -16 -10 -6 0 -7 5 -4 10 3 6 11 10 16
10 6 0 7 -4 4 -10z m227 -46 c-6 -11 -11 -13 -16 -5 -4 6 -12 11 -17 11 -6 0
-7 -5 -3 -12 4 -7 3 -8 -5 -4 -17 11 -2 29 20 23 11 -3 19 0 19 6 0 6 3 8 6 4
3 -3 2 -13 -4 -23z m-69 -48 c-4 -6 -8 -6 -11 2 -2 7 -9 12 -17 12 -7 0 -18 6
-24 14 -9 11 -4 10 23 -2 19 -9 32 -20 29 -26z m-73 26 c0 -5 -7 -17 -16 -28
-8 -10 -14 -14 -11 -9 2 6 7 18 10 28 7 17 17 23 17 9z"/>
<path d="M7240 7222 c0 -12 4 -22 9 -22 10 0 9 26 -2 36 -4 4 -7 -2 -7 -14z"/>
<path d="M7268 7204 c5 -9 7 -26 4 -37 -5 -18 -3 -19 10 -7 17 17 12 60 -9 60
-10 0 -11 -5 -5 -16z"/>
<path d="M7155 7070 c3 -5 8 -10 11 -10 2 0 4 5 4 10 0 6 -5 10 -11 10 -5 0
-7 -4 -4 -10z"/>
<path d="M7200 6860 c0 -5 7 -10 16 -10 8 0 12 5 9 10 -3 6 -10 10 -16 10 -5
0 -9 -4 -9 -10z"/>
<path d="M7295 7736 c-13 -9 -15 -15 -6 -20 6 -4 18 -1 26 8 20 19 3 29 -20
12z"/>
<path d="M7197 7713 c-10 -9 -9 -33 1 -33 4 0 8 9 9 20 2 21 0 24 -10 13z"/>
<path d="M7203 7596 c0 -17 4 -23 14 -19 16 6 14 34 -3 40 -7 2 -11 -7 -11
-21z"/>
<path d="M7205 7530 c-3 -5 -1 -10 4 -10 6 0 11 5 11 10 0 6 -2 10 -4 10 -3 0
-8 -4 -11 -10z"/>
<path d="M7236 7516 c4 -10 -2 -12 -20 -9 -33 7 -33 0 0 -22 15 -9 23 -12 19
-5 -4 7 1 13 13 17 23 5 19 33 -4 33 -7 0 -11 -6 -8 -14z"/>
<path d="M7200 7466 c0 -9 5 -16 10 -16 6 0 10 4 10 9 0 6 -4 13 -10 16 -5 3
-10 -1 -10 -9z"/>
<path d="M7172 7455 c2 -11 10 -20 18 -20 9 0 14 -8 12 -20 -3 -16 -1 -18 9
-7 11 10 8 17 -15 40 -24 24 -27 25 -24 7z"/>
<path d="M7156 7425 c4 -8 11 -15 16 -15 6 0 5 6 -2 15 -7 8 -14 15 -16 15 -2
0 -1 -7 2 -15z"/>
<path d="M6943 7395 c-3 -9 -3 -19 1 -22 3 -4 6 1 6 10 0 8 6 18 13 20 9 4 9
6 -1 6 -7 1 -15 -6 -19 -14z"/>
<path d="M7167 7287 c-3 -9 -2 -19 4 -23 15 -9 18 -2 9 20 -6 17 -7 18 -13 3z"/>
<path d="M6940 7141 c0 -5 5 -13 10 -16 6 -3 10 -2 10 4 0 5 -4 13 -10 16 -5
3 -10 2 -10 -4z"/>
<path d="M6901 7108 c-9 -15 -9 -18 0 -13 7 5 10 3 7 -6 -3 -8 2 -19 11 -26
12 -9 12 -12 3 -13 -31 0 -55 -51 -32 -65 6 -3 10 1 10 9 0 9 7 16 15 16 8 0
15 9 15 20 0 11 5 20 11 20 8 0 8 4 0 14 -10 11 -8 17 6 25 16 9 16 10 -5 11
-13 0 -21 4 -17 9 3 5 2 12 -3 15 -4 2 -14 -4 -21 -16z"/>
<path d="M3656 7102 c-7 -12 4 -52 15 -52 5 0 6 -7 3 -15 -4 -10 0 -15 12 -15
14 0 16 2 6 9 -8 4 -13 12 -12 17 0 5 -2 18 -6 29 -3 11 -6 23 -5 28 1 10 -7
9 -13 -1z"/>
<path d="M3511 7088 c-1 -10 -9 -18 -18 -19 -11 0 -13 -3 -5 -6 6 -2 10 -9 7
-13 -3 -5 -1 -11 5 -15 5 -3 10 1 10 10 0 9 5 13 10 10 12 -7 12 2 0 30 -7 17
-9 17 -9 3z"/>
<path d="M3610 7090 c0 -5 5 -10 11 -10 6 0 8 -9 4 -20 -5 -14 -2 -20 9 -20 9
0 16 -4 16 -10 0 -5 -7 -6 -17 -3 -11 4 -14 3 -9 -5 4 -7 13 -12 19 -12 7 0
18 -9 24 -20 11 -17 10 -18 -5 -13 -9 4 -20 11 -24 17 -5 7 -8 5 -8 -4 0 -9 8
-26 17 -39 9 -14 11 -21 5 -17 -7 4 -12 1 -12 -9 0 -8 6 -18 13 -20 9 -4 11
-42 10 -153 -2 -162 -5 -186 -22 -252 -32 -116 -74 -209 -121 -263 -10 -12
-26 -31 -34 -42 -15 -19 -15 -18 -16 16 0 30 6 39 37 60 56 37 76 80 77 170 1
54 -4 87 -18 118 l-20 43 32 25 c18 13 39 38 48 55 30 58 23 170 -13 199 -14
12 -16 12 -9 -1 4 -8 0 -6 -8 4 -9 11 -16 16 -16 12 0 -5 -6 -4 -13 2 -9 8
-21 7 -41 -3 -33 -18 -46 -12 -39 15 3 12 0 20 -6 20 -7 0 -9 6 -5 13 5 9 3 9
-7 -1 -10 -10 -11 -15 -2 -20 7 -5 9 -13 4 -21 -8 -13 5 -34 53 -84 16 -17 17
-19 3 -14 -22 8 -22 -2 1 -20 15 -13 15 -13 -5 -4 -23 12 -53 5 -53 -11 0 -5
9 -12 20 -15 41 -11 36 -78 -7 -89 -27 -7 -47 11 -35 31 15 24 12 45 -8 45
-11 0 -21 -6 -21 -12 -7 -77 -15 -93 -30 -65 -6 10 -22 17 -40 17 -24 0 -30 4
-27 18 2 9 9 16 16 15 16 -4 71 67 65 83 -3 8 1 14 8 14 10 0 11 2 0 13 -10
10 -14 8 -22 -6 -8 -14 -14 -15 -24 -7 -9 8 -14 7 -18 -4 -4 -9 -2 -18 4 -21
5 -4 -1 -15 -13 -25 -13 -10 -27 -16 -32 -12 -5 3 1 9 13 14 24 9 24 29 0 36
-11 3 -11 2 1 -7 13 -9 13 -11 -2 -11 -10 0 -18 5 -18 11 0 5 -4 7 -10 4 -5
-3 -10 -1 -10 4 0 6 -5 11 -11 11 -6 0 -8 -9 -4 -20 7 -24 -7 -26 -25 -5 -10
12 -16 13 -26 4 -18 -15 -18 -2 0 16 10 11 16 11 27 2 11 -10 11 -9 0 5 -7 10
-17 15 -22 12 -20 -12 -7 9 16 28 14 11 23 23 20 28 -3 4 3 11 12 15 10 3 19
1 21 -5 3 -7 9 -4 17 7 7 10 11 22 8 26 -3 5 -9 4 -12 -2 -4 -6 -20 -12 -37
-13 -41 -2 -47 -7 -32 -26 12 -15 11 -16 -4 -3 -10 7 -18 25 -18 40 -1 23 -2
24 -11 8 -6 -9 -7 -27 -3 -40 5 -12 6 -26 5 -32 -2 -5 -5 -19 -6 -30 -1 -12
-10 -21 -23 -23 -12 -2 -20 -8 -17 -13 3 -5 -2 -6 -11 -2 -12 4 -15 2 -12 -8
3 -9 18 -13 39 -12 19 1 28 -1 22 -3 -16 -7 -17 -54 -2 -54 5 0 8 4 5 9 -3 4
6 6 19 3 14 -2 33 2 42 9 11 9 14 10 9 2 -4 -7 -2 -22 4 -33 9 -18 8 -20 -17
-21 -15 -1 -34 0 -42 1 -8 1 -12 -4 -8 -14 3 -8 2 -16 -2 -18 -5 -2 -12 -14
-16 -26 -6 -21 -4 -23 14 -17 14 4 23 1 27 -9 9 -22 -13 -45 -36 -39 -17 4
-20 0 -20 -26 0 -25 -6 -34 -26 -42 -20 -7 -31 -6 -43 4 -20 17 -55 27 -69 18
-18 -11 -22 -47 -8 -66 12 -16 12 -24 -2 -52 -9 -18 -22 -33 -30 -33 -8 0 -20
-7 -27 -16 -10 -15 -16 -14 -55 11 -34 21 -44 24 -51 13 -7 -10 -9 -10 -9 3 0
9 -9 19 -20 22 -25 6 -26 27 -2 28 14 0 14 2 -3 9 -13 6 -15 9 -5 9 9 1 5 6
-10 14 -29 15 -83 10 -73 -6 4 -6 0 -8 -11 -4 -13 5 -15 3 -7 -12 6 -10 7 -21
4 -25 -10 -10 -45 -7 -38 4 3 6 1 10 -4 10 -6 0 -11 -7 -11 -15 0 -8 -7 -15
-16 -15 -8 0 -12 5 -9 10 3 6 -2 10 -11 10 -10 0 -14 -3 -11 -7 4 -3 -1 -15
-10 -26 -17 -19 -17 -20 0 -14 18 7 25 -17 7 -28 -5 -3 -10 -1 -10 5 0 6 -5 8
-11 4 -7 -4 -8 -9 0 -17 7 -7 5 -19 -7 -39 -15 -25 -15 -30 -2 -38 8 -5 11
-10 5 -10 -6 0 -11 -60 -12 -154 l-3 -155 27 -31 c58 -69 202 -101 348 -77
227 38 414 135 565 293 106 111 170 235 203 394 16 79 22 305 9 314 -6 3 -8
15 -5 27 8 29 -17 130 -30 122 -6 -4 -8 0 -4 10 4 10 2 16 -5 14 -7 -1 -18 10
-25 26 -8 15 -19 27 -26 27 -8 0 -7 4 2 9 12 8 12 12 2 25 -15 18 -31 21 -31
6z m90 -140 c0 -5 -5 -10 -11 -10 -5 0 -7 5 -4 10 3 6 8 10 11 10 2 0 4 -4 4
-10z m-5 -38 c-3 -3 -11 0 -18 7 -9 10 -8 11 6 5 10 -3 15 -9 12 -12z m12 -44
c-3 -7 -5 -2 -5 12 0 14 2 19 5 13 2 -7 2 -19 0 -25z m-174 -6 c-18 -5 -27 3
-18 17 4 7 10 7 20 -2 11 -10 11 -13 -2 -15z m56 -6 c16 -19 24 -97 12 -126
-9 -23 -10 -22 -10 16 -1 46 -23 108 -35 97 -4 -4 -4 0 0 10 7 21 18 22 33 3z
m-340 -96 c9 -5 7 -11 -6 -21 -10 -7 -15 -9 -11 -5 4 5 0 14 -9 21 -9 7 -13
17 -8 25 6 9 9 9 15 0 4 -7 13 -16 19 -20z m132 3 c-8 -15 -10 -15 -11 -2 0
17 10 32 18 25 2 -3 -1 -13 -7 -23z m91 -160 c30 -13 41 -26 55 -62 35 -90 15
-200 -41 -230 -23 -13 -27 -12 -45 10 -20 25 -17 53 5 45 8 -3 25 -1 39 4 19
7 25 17 25 40 0 40 -34 58 -80 41 -25 -8 -36 -8 -51 3 -21 14 -15 26 12 26 19
0 29 19 29 56 0 19 -5 24 -24 24 -29 0 -39 12 -30 34 4 11 13 14 24 11 10 -3
21 -1 25 5 8 13 12 13 57 -7z m-152 -78 c16 -19 4 -35 -25 -35 -13 0 -27 5
-30 10 -8 13 13 40 30 40 7 0 18 -7 25 -15z m-525 -103 c-8 -8 -25 10 -19 20
4 6 9 5 15 -3 4 -7 6 -15 4 -17z m491 -12 c59 -20 38 -30 -61 -30 -52 0 -95 3
-95 6 0 29 97 43 156 24z m184 0 c0 -5 -2 -10 -4 -10 -3 0 -8 5 -11 10 -3 6
-1 10 4 10 6 0 11 -4 11 -10z m-678 -32 c-9 -9 -15 -9 -24 1 -11 10 -10 11 5
6 10 -5 17 -2 17 6 0 7 3 9 7 6 4 -4 1 -13 -5 -19z m-109 -14 c-5 -13 -28 -13
-40 1 -4 4 -2 5 5 1 6 -4 12 -3 12 2 0 5 6 9 14 9 8 0 12 -6 9 -13z m617 -97
c0 -5 -4 -5 -10 -2 -5 3 -10 14 -10 23 0 15 2 15 10 2 5 -8 10 -19 10 -23z
m-606 -143 c-3 -118 -1 -170 7 -180 14 -18 0 -18 -23 0 -16 12 -18 33 -18 180
0 159 1 166 20 166 19 0 19 -6 14 -166z m475 123 c1 -5 -3 -5 -9 -2 -5 3 -10
16 -9 28 0 21 1 21 9 2 5 -11 9 -24 9 -28z m35 -12 c5 -21 4 -27 -3 -20 -6 6
-13 26 -16 45 -7 42 8 21 19 -25z m211 -25 c10 -11 13 -20 7 -20 -6 0 -16 9
-22 20 -6 11 -9 20 -7 20 2 0 12 -9 22 -20z m-327 -21 c2 -19 -7 -36 -31 -60
-19 -19 -36 -41 -39 -49 -3 -8 -9 -12 -13 -8 -10 9 17 78 31 78 7 0 10 8 7 20
-8 29 4 52 24 48 11 -2 19 -14 21 -29z m313 -6 c13 -16 12 -17 -3 -4 -10 7
-18 15 -18 17 0 8 8 3 21 -13z m-21 -57 c0 -12 -14 5 -31 39 -8 16 -6 15 10
-4 12 -13 21 -28 21 -35z m-31 4 c11 -24 11 -24 -3 -6 -9 11 -16 24 -16 30 0
12 5 7 19 -24z m-9 -33 c0 -5 -7 -4 -15 3 -8 7 -15 20 -15 29 1 13 3 13 15 -3
8 -11 15 -24 15 -29z m-150 -8 c14 -11 40 -29 59 -41 l33 -21 -33 -18 c-42
-22 -49 -23 -49 -4 0 26 -44 47 -74 35 -37 -13 -31 -45 7 -45 34 1 36 -21 3
-36 -18 -9 -31 -8 -52 3 -34 15 -41 45 -25 99 18 60 76 72 131 28z m100 0 c0
-6 -4 -7 -10 -4 -5 3 -10 11 -10 16 0 6 5 7 10 4 6 -3 10 -11 10 -16z m-315
-62 c6 -24 -9 -77 -22 -77 -5 0 -14 9 -21 20 -7 11 -19 20 -27 20 -27 0 -16
26 18 43 43 21 46 21 52 -6z m-195 -16 c0 -5 -9 -19 -21 -32 l-20 -24 17 33
c19 33 24 38 24 23z m11 -37 c-11 -15 -21 -24 -21 -20 0 12 33 57 37 52 3 -3
-4 -17 -16 -32z m249 -48 c0 -3 -11 -6 -25 -6 -22 0 -24 2 -13 19 9 16 14 17
25 6 7 -8 13 -16 13 -19z"/>
<path d="M3563 7064 c-8 -18 -8 -26 2 -34 9 -8 14 -6 19 5 3 9 2 13 -4 10 -13
-8 -13 8 1 22 6 6 7 13 2 16 -4 3 -13 -5 -20 -19z"/>
<path d="M3507 7019 c-10 -14 -16 -16 -19 -8 -3 10 -6 10 -12 1 -4 -7 -3 -12
3 -12 6 0 8 -7 5 -15 -4 -8 -1 -15 5 -15 6 0 11 7 11 15 0 8 9 19 20 25 11 6
20 15 20 20 0 17 -18 11 -33 -11z"/>
<path d="M3367 7009 c-9 -6 -15 -16 -11 -22 3 -7 0 -5 -8 3 -15 18 -53 27 -43
11 3 -6 2 -11 -3 -11 -5 0 -12 -9 -15 -21 -5 -18 -3 -18 11 -7 9 7 20 18 25
23 9 13 28 -15 19 -30 -3 -5 2 -4 11 3 18 15 41 7 31 -10 -4 -7 -2 -8 5 -4 6
4 8 13 4 19 -4 7 -6 22 -4 35 3 25 2 25 -22 11z"/>
<path d="M3517 6961 c-3 -12 -1 -21 3 -21 14 0 19 15 11 29 -6 9 -10 7 -14 -8z"/>
<path d="M3246 6961 c-4 -7 -5 -15 -2 -18 9 -9 19 4 14 18 -4 11 -6 11 -12 0z"/>
<path d="M3376 6898 c3 -10 2 -18 -4 -18 -18 0 -21 -28 -6 -47 9 -10 13 -13
10 -7 -3 7 3 14 14 17 11 3 20 1 20 -5 0 -5 5 -6 10 -3 15 9 12 25 -5 25 -8 0
-15 4 -15 8 0 5 -7 17 -15 28 -13 16 -14 16 -9 2z"/>
<path d="M3420 6901 c0 -6 4 -13 10 -16 6 -3 7 1 4 9 -7 18 -14 21 -14 7z"/>
<path d="M3330 6882 c-18 -8 -26 -52 -10 -52 7 0 10 7 6 15 -3 8 -1 15 3 15 5
0 11 7 15 15 3 8 4 15 3 14 -1 0 -9 -3 -17 -7z"/>
<path d="M6897 6850 c-3 -11 -3 -20 -1 -20 2 0 8 9 14 20 6 11 7 20 2 20 -6 0
-12 -9 -15 -20z"/>
<path d="M6930 6856 c0 -2 7 -7 16 -10 8 -3 12 -2 9 4 -6 10 -25 14 -25 6z"/>
<path d="M6920 6830 c-11 -7 -11 -10 -2 -10 7 0 11 -4 8 -8 -3 -5 -22 -7 -43
-6 -24 2 -33 0 -23 -5 8 -5 26 -7 40 -6 14 2 28 4 32 4 4 1 6 10 5 21 -1 11
-1 20 -2 20 0 0 -7 -5 -15 -10z"/>
<path d="M6892 6783 c-27 -4 -31 -7 -22 -18 8 -9 8 -15 0 -20 -5 -3 -10 -1
-10 4 0 6 -5 11 -11 11 -8 0 -8 -5 1 -15 7 -8 20 -14 29 -13 9 2 15 -3 14 -9
-2 -7 2 -13 9 -13 6 0 8 -3 5 -7 -9 -8 23 -32 43 -33 9 0 11 3 5 8 -13 9 -18
32 -6 32 4 0 7 15 6 33 -4 47 -4 47 -17 45 -7 0 -28 -3 -46 -5z m23 -23 c-3
-6 1 -7 10 -4 13 5 15 1 13 -19 -4 -31 -18 -48 -18 -23 0 9 -6 19 -13 22 -18
7 -18 34 0 34 8 0 11 -4 8 -10z"/>
<path d="M2499 6765 c-1 -3 -2 -8 -3 -12 -1 -5 -5 -13 -9 -20 -8 -13 1 -43 13
-43 4 0 10 9 13 20 3 11 1 20 -3 20 -4 0 -6 9 -3 20 3 11 3 20 -1 20 -3 0 -7
-2 -7 -5z"/>
<path d="M3105 6760 c-3 -5 -1 -10 5 -10 6 0 8 -5 5 -10 -4 -6 -12 -7 -18 -3
-7 4 -5 -1 3 -11 13 -17 14 -17 21 1 4 10 8 24 8 31 1 14 -15 16 -24 2z"/>
<path d="M2900 6723 c0 -8 -11 -11 -30 -9 -16 2 -30 -1 -30 -5 0 -13 -37 -48
-44 -41 -3 3 -6 2 -6 -1 0 -17 37 -42 60 -41 14 0 32 -3 40 -7 11 -5 15 -1 16
17 1 13 -2 22 -6 19 -13 -8 -70 16 -64 27 4 6 10 6 17 -1 14 -14 27 -14 27 0
0 5 -4 8 -9 4 -5 -3 -13 0 -17 7 -4 7 -4 10 0 6 5 -4 19 -2 33 3 21 8 24 7 19
-6 -3 -8 -1 -15 4 -15 13 0 13 21 0 40 -6 10 -10 11 -10 3z m-26 -85 c-4 -6
-10 -6 -16 0 -6 6 -18 8 -27 5 -13 -4 -13 -3 -2 5 16 12 53 4 45 -10z"/>
<path d="M2455 6670 c-4 -11 -14 -19 -22 -18 -9 2 -18 -3 -21 -11 -3 -10 0
-12 12 -8 9 4 16 2 16 -4 0 -6 5 -7 10 -4 6 3 10 1 10 -4 0 -6 -7 -11 -15 -11
-8 0 -15 -9 -15 -21 0 -11 3 -18 8 -16 4 3 6 -14 6 -36 -1 -23 -2 -58 -3 -78
-1 -25 -6 -39 -18 -43 -10 -3 -23 -9 -30 -12 -13 -6 -12 -3 5 74 9 36 8 43 -4
38 -15 -6 -19 6 -7 18 14 14 10 34 -8 39 -19 5 -23 -3 -20 -33 2 -13 1 -13 -8
0 -15 21 -13 39 4 56 13 14 15 14 15 0 0 -9 7 -16 16 -16 10 0 13 6 9 19 -3
10 -1 30 4 44 5 14 7 27 5 30 -10 10 -44 -6 -44 -20 0 -9 6 -13 14 -10 10 4
13 1 9 -9 -7 -18 -20 -18 -30 0 -7 12 -14 10 -38 -10 -16 -13 -25 -24 -18 -24
6 0 15 5 18 10 9 15 25 12 25 -6 0 -8 -4 -13 -9 -10 -4 3 -6 -5 -4 -18 3 -15
-1 -25 -12 -30 -13 -5 -16 -2 -13 12 3 11 0 19 -8 19 -7 0 -11 -4 -8 -8 2 -4
0 -10 -6 -14 -5 -3 -10 -12 -10 -18 0 -8 3 -8 9 2 6 9 11 10 15 2 4 -6 12 -9
17 -6 15 10 21 -19 10 -48 -6 -15 -22 -32 -36 -39 -17 -8 -25 -18 -23 -31 2
-15 -9 -27 -42 -45 -25 -14 -47 -28 -50 -33 -10 -14 -34 -14 -35 1 0 10 -10
15 -27 15 -15 -1 -24 3 -22 7 3 4 1 8 -5 8 -6 0 -8 7 -5 15 4 8 -1 17 -10 21
-12 5 -14 10 -6 19 8 9 3 14 -21 19 -20 4 -28 10 -24 18 4 7 0 5 -8 -4 -18
-22 -31 -23 -23 -2 3 8 2 12 -4 9 -6 -3 -10 1 -10 9 0 9 -7 16 -15 16 -10 0
-14 -11 -13 -37 1 -21 3 -33 5 -27 2 6 15 9 29 6 26 -5 28 -28 2 -26 -11 1
-14 -5 -10 -19 4 -16 2 -19 -11 -14 -9 3 -19 2 -22 -4 -4 -5 -10 -7 -15 -4 -5
3 -12 0 -16 -6 -4 -8 -3 -9 4 -5 7 4 12 1 12 -7 0 -11 -12 -15 -45 -14 -34 0
-44 4 -41 14 3 7 1 13 -4 13 -6 0 -10 -7 -10 -15 0 -8 -5 -15 -11 -15 -6 0 -9
-6 -6 -14 4 -10 0 -14 -14 -13 -19 1 -28 17 -9 17 6 0 10 7 10 16 0 8 5 12 10
9 13 -8 13 5 0 25 -9 13 -10 13 -10 0 0 -13 -1 -13 -11 0 -9 12 -10 11 -6 -7
3 -13 1 -23 -4 -23 -5 0 -9 5 -9 10 0 6 -8 2 -18 -7 -15 -16 -16 -20 -3 -29 8
-6 11 -16 7 -22 -4 -7 -1 -12 7 -12 10 0 13 -8 10 -24 -4 -17 -10 -22 -23 -19
-9 3 -20 -1 -22 -9 -8 -19 10 -60 24 -56 23 8 35 -14 24 -39 -12 -24 -36 -39
-36 -22 0 7 -10 9 -26 5 -17 -5 -23 -3 -19 4 3 5 14 10 23 11 11 0 12 2 4 6
-7 3 -19 17 -27 33 -13 25 -13 29 0 40 8 7 15 18 14 24 0 7 -2 6 -6 -1 -2 -7
-11 -13 -19 -13 -9 0 -12 -4 -9 -10 3 -5 -3 -15 -15 -22 -26 -16 -26 -28 0
-21 22 6 29 -20 8 -33 -6 -4 -8 -3 -4 4 3 6 2 13 -3 16 -5 4 -12 -2 -14 -11
-4 -15 -5 -16 -6 -2 0 9 -8 19 -15 22 -10 4 -13 1 -9 -9 4 -10 0 -12 -11 -8
-12 4 -16 0 -16 -16 0 -13 8 -24 20 -27 11 -3 20 -11 20 -18 0 -7 17 -25 38
-41 20 -15 39 -30 42 -34 11 -11 90 -60 99 -60 5 0 11 -4 13 -8 5 -14 128 -67
203 -89 122 -36 217 -46 298 -33 89 15 143 38 180 77 l28 30 -3 344 c-3 320
-4 344 -20 343 -10 -1 -15 3 -12 8 3 5 12 7 20 4 10 -4 13 2 12 19 -3 29 -5
30 -25 10 -8 -8 -19 -12 -25 -9 -7 5 -5 11 5 19 9 7 14 15 10 18 -12 12 -22 7
-28 -13z m41 -79 c-3 -5 -15 -7 -26 -4 -28 7 -25 13 6 13 14 0 23 -4 20 -9z
m-532 -126 c3 -8 1 -15 -4 -15 -6 0 -10 7 -10 15 0 8 2 15 4 15 2 0 6 -7 10
-15z m64 -49 c-10 -7 -18 -20 -18 -29 0 -9 -4 -19 -10 -22 -5 -3 -10 2 -10 11
0 20 28 54 44 54 6 0 3 -7 -6 -14z m17 -37 c-4 -5 -12 -9 -18 -8 -9 0 -8 2 1
6 6 2 9 10 6 15 -4 7 -2 8 5 4 6 -4 9 -12 6 -17z m-8 -34 c9 -25 -4 -29 -17
-6 -7 15 -7 21 0 21 6 0 13 -7 17 -15z m-89 -20 c-3 -3 -9 2 -12 12 -6 14 -5
15 5 6 7 -7 10 -15 7 -18z m121 11 c9 -10 8 -15 -2 -19 -8 -3 -13 3 -14 14 -2
23 1 24 16 5z m-169 -26 c0 -12 -7 -20 -17 -20 -15 0 -16 2 -3 10 8 5 11 10 7
10 -5 0 -5 5 -2 10 10 16 15 12 15 -10z m-40 -4 c-6 -8 -19 -12 -27 -9 -11 4
-14 3 -9 -6 4 -6 16 -9 26 -6 10 3 21 1 25 -5 10 -16 35 -12 35 6 0 13 3 14
13 5 10 -8 17 -7 25 1 9 9 12 7 12 -7 0 -11 -5 -27 -10 -35 -9 -13 -11 -13
-20 0 -8 13 -10 12 -11 -5 -1 -11 -2 -26 -2 -33 1 -18 -39 -11 -44 8 -4 13 -3
13 7 0 10 -12 11 -11 7 8 -3 12 0 22 6 22 6 0 8 3 5 6 -10 9 -88 12 -88 3 0
-5 -5 -9 -11 -9 -5 0 -7 6 -3 13 6 9 3 8 -9 -1 -14 -12 -16 -11 -14 7 1 12 7
21 13 21 6 0 25 7 40 15 37 19 50 19 34 1z m157 -11 c0 -8 -4 -12 -9 -9 -5 3
-6 10 -3 15 9 13 12 11 12 -6z m73 1 c0 -3 -4 -8 -10 -11 -5 -3 -10 -1 -10 4
0 6 5 11 10 11 6 0 10 -2 10 -4z m350 -178 c0 -92 -2 -168 -4 -168 -2 0 -12
-3 -21 -7 -15 -5 -16 -3 -6 15 7 13 9 44 5 79 -3 32 -7 101 -7 155 -2 86 0 96
16 95 15 -1 17 -16 17 -169z m-593 116 c-3 -3 -12 -4 -19 -1 -8 3 -5 6 6 6 11
1 17 -2 13 -5z m-97 -14 c0 -5 9 -10 19 -10 11 0 23 -5 27 -11 5 -8 -1 -10
-20 -7 -14 3 -29 1 -33 -5 -7 -12 -23 23 -16 36 6 10 23 9 23 -3z m309 -9 c8
-6 11 -16 6 -31 -4 -12 -3 -25 2 -29 18 -11 42 -71 32 -77 -6 -3 -11 -4 -12
-3 -25 47 -39 66 -55 74 -22 10 -34 38 -25 61 6 16 31 18 52 5z m-215 -10 c3
-5 -1 -11 -9 -14 -9 -4 -12 -1 -8 9 6 16 10 17 17 5z m77 -43 c8 -15 8 -18 0
-14 -6 4 -16 16 -22 28 -8 15 -8 18 0 14 6 -4 16 -16 22 -28z m-118 -32 c8
-19 -15 -48 -30 -38 -15 10 -5 52 12 52 7 0 15 -6 18 -14z m-188 -6 c-3 -5
-12 -10 -18 -10 -7 0 -6 4 3 10 19 12 23 12 15 0z m395 -10 c21 -11 40 -60 40
-106 0 -28 -5 -34 -35 -44 -25 -8 -40 -8 -55 0 -29 15 -25 36 8 35 20 0 27 5
27 20 0 16 -8 21 -37 23 -30 3 -39 -1 -49 -20 -6 -13 -13 -24 -14 -26 -1 -2
-19 5 -39 14 -36 18 -47 34 -23 34 7 0 31 15 53 33 55 48 87 57 124 37z m-189
-27 c-8 -15 -10 -15 -11 -2 0 17 10 32 18 25 2 -3 -1 -13 -7 -23z m357 -53
c45 -22 55 -40 22 -40 -11 0 -25 -9 -32 -20 -17 -27 -27 -25 -38 6 -8 20 -5
74 4 74 1 0 21 -9 44 -20z m173 -55 c8 -16 6 -15 -10 4 -12 13 -21 28 -21 35
0 12 14 -5 31 -39z m-21 -20 c0 -11 -14 7 -31 40 -7 13 -3 12 10 -5 11 -14 21
-29 21 -35z m-220 -38 c0 -5 -10 -5 -22 -1 -31 9 -32 11 -17 27 12 12 15 12
26 -2 7 -9 13 -20 13 -24z"/>
<path d="M1785 6109 c-4 -6 -5 -12 -2 -15 2 -3 7 2 10 11 7 17 1 20 -8 4z"/>
<path d="M6803 6675 c0 -8 3 -15 6 -16 3 0 14 -2 24 -4 9 -2 15 1 11 6 -3 5
-10 7 -15 4 -5 -4 -9 1 -9 9 0 9 -4 16 -8 16 -5 0 -9 -7 -9 -15z"/>
<path d="M3000 6666 c0 -2 7 -9 15 -16 9 -7 15 -8 15 -2 0 5 -7 12 -15 16 -8
3 -15 4 -15 2z"/>
<path d="M2923 6616 c1 -24 5 -42 9 -40 12 8 15 -21 4 -49 -7 -19 -17 -27 -31
-26 -35 2 -46 -1 -40 -11 3 -5 2 -10 -4 -10 -14 0 -6 -33 11 -43 21 -13 68 0
68 19 0 8 -4 12 -10 9 -19 -12 -10 12 12 31 20 16 21 17 9 1 -10 -13 -11 -21
-4 -28 8 -8 13 -1 18 23 3 18 9 41 11 51 4 11 0 17 -10 17 -9 0 -16 7 -16 16
0 14 3 14 15 4 12 -10 15 -10 15 4 0 9 5 16 11 16 5 0 8 -4 4 -9 -3 -5 0 -13
5 -16 8 -5 9 5 4 32 -8 45 -4 39 -33 48 -16 5 -21 4 -17 -4 4 -6 2 -11 -3 -11
-6 0 -11 5 -11 10 0 6 -4 10 -9 10 -5 0 -9 -20 -8 -44z m-13 -136 c0 -5 -4
-10 -10 -10 -5 0 -10 5 -10 10 0 6 5 10 10 10 6 0 10 -4 10 -10z"/>
<path d="M2760 6590 c0 -5 5 -10 11 -10 5 0 7 5 4 10 -3 6 -8 10 -11 10 -2 0
-4 -4 -4 -10z"/>
<path d="M2735 6570 c-3 -11 -11 -20 -17 -20 -6 0 0 -8 13 -18 17 -15 19 -21
9 -27 -8 -5 -11 -4 -7 2 4 6 -1 13 -11 15 -13 4 -17 -2 -17 -24 0 -33 0 -33
35 -8 15 11 31 16 36 12 5 -4 0 3 -10 16 -11 12 -16 25 -13 29 4 3 7 1 7 -5 0
-7 5 -12 11 -12 6 0 9 6 6 14 -4 10 0 12 15 8 15 -3 19 -1 16 9 -3 8 -13 14
-24 14 -10 0 -24 3 -31 8 -7 4 -14 0 -18 -13z"/>
<path d="M1890 6548 c0 -4 4 -8 9 -8 5 0 8 -7 7 -16 0 -9 4 -19 9 -21 6 -2 12
10 13 26 2 24 -1 29 -18 28 -11 -1 -20 -5 -20 -9z"/>
<path d="M2150 6539 c0 -5 -4 -7 -10 -4 -5 3 -10 2 -10 -4 0 -5 8 -15 18 -20
9 -6 13 -11 9 -11 -4 0 -3 -9 3 -20 8 -15 8 -20 -2 -20 -6 0 -3 -7 8 -15 26
-19 70 -19 78 1 10 27 7 43 -13 53 -15 8 -18 7 -17 -6 0 -9 -4 -18 -11 -20 -7
-3 -9 3 -6 18 5 19 4 20 -14 11 -18 -10 -20 -8 -18 19 1 16 -2 29 -7 29 -4 0
-8 -5 -8 -11z m80 -89 c0 -5 -8 -10 -17 -10 -15 0 -16 2 -3 10 19 12 20 12 20
0z"/>
<path d="M2046 6503 c-16 -17 -4 -39 22 -40 15 -1 22 1 15 3 -7 3 -10 11 -7
18 5 14 -20 29 -30 19z"/>
<path d="M2008 6483 c7 -3 16 -2 19 1 4 3 -2 6 -13 5 -11 0 -14 -3 -6 -6z"/>
<path d="M2600 6477 c-18 -15 -14 -67 5 -67 8 0 17 5 20 10 4 6 10 8 15 5 16
-10 17 34 1 49 -21 19 -22 19 -41 3z m24 -22 c-6 16 -5 18 7 7 11 -10 10 -15
-5 -30 -11 -9 -16 -11 -12 -4 4 6 2 12 -3 12 -6 0 -11 8 -11 17 0 15 2 14 15
-3 15 -19 15 -19 9 1z"/>
<path d="M4090 6375 c0 -32 2 -35 30 -35 l30 0 0 -170 0 -170 40 0 40 0 0 170
0 170 36 0 c34 0 35 1 32 33 l-3 32 -102 3 -103 3 0 -36z"/>
<path d="M4350 6204 l0 -205 43 3 42 3 0 85 0 85 28 3 27 3 0 -90 0 -91 45 0
45 0 0 205 0 205 -45 0 -45 0 0 -85 0 -85 -29 0 -28 0 2 66 c4 96 0 104 -46
104 l-39 0 0 -206z"/>
<path d="M4660 6205 l0 -205 85 0 85 0 0 30 c0 29 -2 30 -45 30 l-45 0 0 60 0
60 35 0 c32 0 35 2 35 30 0 28 -3 30 -36 30 l-35 0 3 53 c3 50 4 52 33 53 17
1 36 2 43 3 6 0 12 14 12 31 l0 30 -85 0 -85 0 0 -205z"/>
<path d="M4890 6206 l0 -206 43 0 42 0 0 87 c0 104 16 118 34 31 23 -114 23
-113 70 -116 l42 -3 -7 38 c-4 21 -11 49 -16 63 -6 14 -12 36 -15 50 -2 13 -6
26 -8 29 -3 2 4 14 14 28 24 29 34 88 23 127 -13 48 -48 66 -140 73 l-82 6 0
-207z m138 122 c31 -31 -5 -109 -43 -94 -12 4 -15 18 -14 56 2 44 5 50 24 50
11 0 26 -5 33 -12z"/>
<path d="M5247 6403 c-5 -9 -18 -65 -21 -96 -2 -12 -9 -49 -15 -82 -16 -77
-28 -140 -36 -187 l-6 -38 39 0 c38 0 39 1 48 43 8 35 13 42 36 45 25 3 27 0
33 -42 7 -46 8 -46 47 -46 l39 0 -6 38 c-7 42 -52 278 -63 332 -7 32 -11 35
-49 38 -23 1 -44 -1 -46 -5z m49 -155 c0 -13 4 -42 8 -65 7 -39 6 -43 -13 -43
-18 0 -20 5 -15 53 8 73 18 103 20 55z"/>
<path d="M5470 6206 l0 -206 40 0 40 0 0 85 0 85 30 0 c37 0 86 24 98 48 15
30 14 109 -2 140 -19 37 -33 42 -128 48 l-78 5 0 -205z m138 89 c3 -29 -1 -43
-14 -52 -35 -25 -44 -16 -44 43 0 54 0 55 28 52 24 -3 27 -8 30 -43z"/>
<path d="M5750 6203 l0 -203 85 0 85 0 0 30 c0 29 -2 30 -45 30 l-45 0 0 60 0
60 35 0 c32 0 35 2 35 30 0 28 -3 30 -36 30 l-35 0 3 53 3 52 43 3 c37 3 42 6
42 28 0 27 1 27 -97 28 l-73 1 0 -202z"/>
<path d="M5984 6396 c-3 -8 -4 -89 -2 -180 3 -162 4 -166 28 -191 20 -20 36
-26 76 -26 57 -2 89 14 104 51 15 35 16 338 2 352 -18 18 -62 1 -62 -25 0 -12
0 -77 0 -144 0 -140 -9 -176 -43 -171 -22 3 -22 5 -25 171 -1 92 -6 167 -10
168 -4 0 -19 3 -35 5 -18 3 -29 0 -33 -10z"/>
<path d="M7622 6401 c-8 -5 -13 -30 -28 -135 -2 -16 -8 -45 -14 -65 -5 -20
-12 -52 -15 -71 -8 -53 -16 -93 -21 -112 -5 -15 1 -18 34 -18 39 0 40 0 46 45
7 41 10 45 35 45 30 0 41 -18 41 -67 0 -20 5 -23 40 -23 22 0 40 2 40 5 0 3
-7 38 -15 78 -8 40 -21 112 -30 161 -26 154 -29 161 -69 162 -19 0 -39 -2 -44
-5z m49 -163 c1 -13 3 -40 4 -60 3 -33 1 -38 -17 -38 -19 0 -20 4 -13 48 4 26
8 53 8 60 1 22 17 13 18 -10z"/>
<path d="M7835 6400 c-2 -3 -4 -95 -4 -203 l-1 -197 45 0 45 0 0 90 c0 50 4
90 9 90 9 0 27 -46 36 -90 2 -13 9 -38 15 -56 11 -31 15 -34 51 -34 21 0 39 2
39 5 0 7 -30 119 -41 153 -10 29 -8 36 10 56 45 48 32 148 -23 175 -29 14
-173 23 -181 11z m137 -67 c10 -9 18 -26 18 -37 0 -30 -28 -66 -51 -66 -17 0
-19 7 -19 60 0 65 14 77 52 43z"/>
<path d="M8140 6204 l0 -204 30 0 c33 0 33 1 31 145 -1 72 7 64 55 -60 27 -69
35 -80 58 -83 l26 -3 0 200 c0 207 -1 214 -42 203 -18 -4 -24 -57 -21 -154 1
-16 -3 -28 -8 -28 -5 0 -8 3 -7 8 1 4 -5 23 -13 42 -9 19 -24 58 -34 86 -16
45 -21 51 -46 52 l-29 1 0 -205z"/>
<path d="M8420 6204 l0 -204 44 0 45 0 1 200 c0 110 -3 201 -7 201 -5 1 -25 3
-45 4 l-38 2 0 -203z"/>
<path d="M8597 6403 c-4 -3 -7 -96 -7 -205 l0 -198 31 0 c29 0 30 2 29 38 -4
83 0 165 8 157 12 -13 72 -167 72 -182 0 -8 13 -13 30 -13 l30 0 0 203 0 202
-30 1 -30 1 0 -93 c0 -52 -3 -94 -8 -94 -4 0 -20 33 -36 74 -39 104 -64 134
-89 109z"/>
<path d="M8941 6399 c-64 -13 -74 -39 -74 -209 -1 -125 11 -162 58 -184 43
-21 57 -20 89 5 21 17 26 18 26 5 0 -11 9 -16 28 -16 l28 0 -2 93 c-1 50 -2
98 -3 105 -1 8 -19 12 -56 12 -52 0 -55 -1 -55 -25 0 -18 5 -25 20 -25 15 0
20 -7 20 -27 0 -51 -11 -73 -35 -73 -32 0 -35 15 -35 150 0 92 3 120 15 130
22 18 45 -5 45 -45 0 -31 2 -33 33 -31 17 2 36 4 41 5 13 2 -2 92 -19 111 -18
20 -76 29 -124 19z"/>
<path d="M9374 6402 c-34 -5 -53 -34 -65 -98 -10 -50 -7 -185 4 -234 13 -59
78 -91 141 -70 48 16 64 38 68 98 l3 52 -41 0 -42 0 8 -34 c8 -37 -2 -56 -32
-56 -27 0 -34 27 -32 125 1 143 2 152 21 160 19 7 61 -33 46 -44 -4 -3 -9 -14
-9 -23 -1 -14 6 -18 36 -18 35 0 38 2 42 33 5 45 -1 67 -18 67 -8 0 -13 4 -10
9 13 21 -65 43 -120 33z"/>
<path d="M9915 6401 c-18 -8 -20 -17 -18 -102 2 -52 3 -101 4 -109 0 -8 0 -20
-1 -25 -1 -6 -2 -45 -1 -87 l1 -78 29 0 29 0 1 97 c2 99 6 120 17 87 21 -64
59 -161 67 -171 5 -7 20 -13 33 -13 l24 0 -2 203 c-3 218 1 203 -52 198 -11
-1 -14 -18 -13 -76 3 -87 -5 -125 -18 -85 -15 49 -68 170 -74 169 -3 0 -15 -4
-26 -8z"/>
<path d="M10228 6396 c-41 -14 -60 -49 -55 -104 4 -36 14 -53 66 -107 42 -43
61 -71 61 -89 0 -48 -47 -44 -57 6 -5 26 -9 29 -37 26 -28 -3 -31 -6 -30 -36
3 -47 28 -80 73 -92 50 -13 91 1 114 39 36 62 16 124 -68 204 -45 43 -55 73
-34 94 18 18 39 3 39 -28 0 -27 2 -28 33 -22 40 8 47 19 35 53 -19 55 -75 77
-140 56z"/>
<path d="M10440 6240 c0 -145 2 -169 19 -196 45 -74 174 -63 200 18 6 19 10
98 8 187 l-2 154 -25 2 c-49 4 -50 2 -50 -157 0 -154 -7 -188 -39 -188 -27 0
-31 26 -31 195 l0 150 -40 0 -40 1 0 -166z"/>
<path d="M10740 6203 l0 -203 84 0 c78 0 84 1 90 23 9 36 8 37 -41 37 l-48 0
0 172 0 173 -42 0 -43 0 0 -202z"/>
<path d="M10948 6402 c-12 -2 -18 -13 -18 -33 0 -24 4 -29 25 -29 l25 0 0
-170 0 -170 45 0 45 0 0 170 0 170 25 0 c22 0 25 4 25 34 l0 34 -77 -1 c-43
-1 -86 -3 -95 -5z"/>
<path d="M11231 6403 c-32 -13 -60 -58 -59 -98 0 -48 13 -70 78 -131 37 -35
50 -54 50 -75 0 -53 -43 -45 -55 10 -5 26 -9 28 -38 22 -25 -5 -32 -12 -33
-31 -4 -69 68 -122 137 -101 44 13 69 48 69 95 0 54 -15 82 -75 138 -56 52
-69 84 -41 107 15 13 29 1 41 -37 4 -15 12 -21 22 -18 8 3 21 6 29 6 17 0 19
39 3 74 -17 36 -84 56 -128 39z"/>
<path d="M6262 6370 c-2 -26 1 -30 23 -30 14 0 25 -6 25 -12 1 -7 1 -84 1
-171 l0 -158 42 3 42 3 3 143 c2 109 0 142 -9 136 -8 -5 -9 -3 -3 7 9 14 10
19 13 39 0 6 12 10 26 10 21 0 25 5 25 28 l0 28 -93 3 -93 2 -2 -31z m115
-306 c-3 -3 -12 -4 -19 -1 -8 3 -5 6 6 6 11 1 17 -2 13 -5z"/>
<path d="M6513 6379 c-1 -10 5 -19 13 -21 12 -3 12 -7 -1 -32 -17 -33 -19 -56
-5 -56 6 0 10 -5 10 -11 0 -5 -4 -8 -8 -5 -4 2 -9 -4 -9 -15 -2 -26 16 -24 27
4 l9 22 0 -22 c1 -13 4 -23 9 -23 12 0 38 20 26 20 -7 0 -9 11 -6 25 4 21 1
24 -13 19 -13 -5 -16 -3 -13 7 3 8 2 21 -3 30 -12 24 4 42 19 19 8 -13 9 -20
1 -20 -5 0 -7 -4 -4 -10 13 -22 21 -8 21 39 l1 48 -37 0 c-27 0 -36 -4 -37
-18z"/>
<path d="M6719 6393 c-1 -5 -1 -11 0 -15 0 -5 -6 -8 -15 -8 -9 0 -14 -6 -11
-12 7 -24 31 -13 32 15 2 24 -3 39 -6 20z"/>
<path d="M6771 6383 c14 -16 33 -18 23 -1 -4 7 -3 8 4 4 7 -4 12 -13 12 -19 0
-7 9 -18 20 -25 12 -7 18 -18 14 -24 -4 -7 -3 -8 4 -4 8 5 12 -1 12 -14 0 -16
-4 -20 -16 -16 -14 6 -15 4 -4 -9 12 -14 15 -14 28 -1 10 9 12 21 6 33 -4 10
-8 23 -9 28 0 6 -10 23 -21 37 -15 19 -30 27 -52 26 -26 -1 -30 -4 -21 -15z"/>
<path d="M7105 6357 c1 -24 5 -48 9 -55 4 -7 3 -12 -1 -12 -5 0 -10 -11 -11
-25 -1 -17 3 -25 14 -25 8 0 12 -4 9 -10 -3 -5 -1 -10 4 -10 6 0 11 4 11 9 0
5 3 17 7 26 5 14 2 16 -17 10 -15 -5 -20 -4 -16 4 10 15 31 14 45 -2 8 -10 7
-17 -1 -25 -9 -9 -8 -12 4 -12 12 0 16 14 17 71 1 42 -2 68 -8 65 -5 -4 -13
-1 -17 5 -4 7 -3 9 4 5 6 -3 13 -2 16 3 3 5 -2 12 -11 15 -9 4 -20 2 -23 -5
-6 -8 -9 -8 -14 0 -14 22 -22 10 -21 -32z m33 -21 c-7 -8 -15 -12 -17 -11 -5
6 10 25 20 25 5 0 4 -6 -3 -14z m22 -22 c0 -8 -4 -12 -10 -9 -5 3 -10 10 -10
16 0 5 5 9 10 9 6 0 10 -7 10 -16z"/>
<path d="M7330 6329 c0 -55 3 -69 15 -69 19 0 19 -15 0 -44 -16 -23 -16 -80
-1 -104 4 -7 3 -12 -2 -12 -4 0 -9 -22 -11 -50 -2 -50 -2 -50 29 -50 22 0 30
5 30 18 1 16 1 16 11 0 7 -13 22 -17 54 -16 43 0 45 2 45 29 0 28 -2 29 -47
30 -27 1 -52 1 -58 -1 -5 -1 -4 4 3 11 6 7 12 35 12 61 l0 48 35 0 c32 0 35 3
35 28 0 25 -4 29 -30 30 -29 1 -78 21 -52 22 8 0 13 11 12 28 -5 65 -3 68 37
64 31 -4 35 -2 29 13 -5 13 -2 16 10 11 10 -4 14 -1 12 6 -3 9 -31 14 -86 15
l-82 1 0 -69z m45 51 c3 -6 -1 -7 -9 -4 -18 7 -21 14 -7 14 6 0 13 -4 16 -10z
m-5 -74 c0 -2 -8 -10 -17 -17 -16 -13 -17 -12 -4 4 13 16 21 21 21 13z m15
-85 c3 -5 2 -12 -3 -15 -5 -3 -9 1 -9 9 0 17 3 19 12 6z m-20 -51 c-3 -5 -12
-10 -18 -10 -7 0 -6 4 3 10 19 12 23 12 15 0z m32 -22 c-3 -8 -6 -5 -6 6 -1
11 2 17 5 13 3 -3 4 -12 1 -19z"/>
<path d="M9627 6382 c-28 -31 -37 -72 -37 -175 0 -167 24 -209 116 -209 51 0
91 22 104 56 5 13 9 83 9 155 0 129 0 130 -29 161 -25 27 -34 30 -87 30 -44 0
-64 -5 -76 -18z m102 -50 c8 -18 11 -73 9 -148 l-3 -119 -27 -3 c-25 -3 -27 0
-33 42 -11 70 -2 220 14 239 19 24 27 21 40 -11z"/>
<path d="M6743 6373 c3 -13 -1 -24 -10 -27 -8 -3 -11 -11 -7 -18 5 -8 2 -9 -9
-5 -22 8 -21 5 4 -24 13 -15 20 -18 19 -9 -5 30 0 51 10 45 6 -4 10 -3 9 2 -3
19 2 23 21 13 11 -6 20 -7 20 -1 0 8 -23 21 -36 20 -4 0 -11 5 -16 13 -7 9 -8
7 -5 -9z"/>
<path d="M1870 6372 c-8 -4 -16 -14 -18 -22 -3 -11 2 -10 17 4 28 26 29 30 1
18z"/>
<path d="M6674 6316 c3 -16 8 -31 11 -34 9 -10 5 33 -5 48 -8 11 -9 8 -6 -14z"/>
<path d="M1492 6308 c-18 -18 -15 -41 4 -34 10 4 14 2 11 -6 -2 -7 -10 -12
-16 -10 -6 1 -11 -2 -11 -8 0 -5 5 -10 11 -10 5 0 7 -5 3 -11 -4 -8 1 -9 16
-4 20 6 22 4 18 -17 -3 -16 3 -35 19 -54 l24 -29 -11 28 c-8 24 -7 32 8 45 9
10 13 14 8 10 -6 -5 -17 -8 -26 -8 -12 1 -12 2 3 11 9 5 17 17 17 25 0 12 -7
14 -32 9 -33 -7 -33 -7 -10 10 25 19 30 37 6 28 -13 -5 -15 -2 -9 15 7 25 -13
30 -33 10z"/>
<path d="M6815 6310 c3 -5 8 -10 11 -10 2 0 4 5 4 10 0 6 -5 10 -11 10 -5 0
-7 -4 -4 -10z"/>
<path d="M1690 6283 c0 -13 -3 -13 -15 -3 -11 9 -15 9 -15 1 0 -7 -4 -9 -10
-6 -5 3 -10 2 -10 -4 0 -6 14 -9 31 -7 38 4 57 21 35 29 -11 4 -16 1 -16 -10z"/>
<path d="M6688 6261 c12 -6 25 -17 28 -26 4 -8 10 -15 15 -15 14 0 11 37 -3
38 -7 0 -24 3 -38 7 -24 5 -24 5 -2 -4z"/>
<path d="M7330 6240 c0 -5 5 -10 11 -10 5 0 7 5 4 10 -3 6 -8 10 -11 10 -2 0
-4 -4 -4 -10z"/>
<path d="M1648 6233 c6 -2 18 -2 25 0 6 3 1 5 -13 5 -14 0 -19 -2 -12 -5z"/>
<path d="M6684 6215 c-18 -14 -18 -15 4 -21 23 -7 23 -7 2 -21 -37 -26 -17
-87 21 -62 12 7 12 9 -1 10 -8 1 -18 1 -22 0 -5 0 -8 4 -8 9 0 9 13 14 31 12
4 -1 5 8 2 19 -5 18 -3 20 15 15 16 -6 19 -3 16 12 -8 30 -39 43 -60 27z m23
-11 c-3 -3 -12 -4 -19 -1 -8 3 -5 6 6 6 11 1 17 -2 13 -5z"/>
<path d="M7100 6221 c0 -5 5 -13 10 -16 6 -3 10 -17 10 -31 0 -14 4 -22 10
-19 6 3 10 0 10 -7 0 -9 3 -9 10 2 5 8 10 11 10 5 0 -5 3 -20 6 -33 5 -18 3
-21 -10 -16 -9 3 -13 10 -10 15 5 9 -7 12 -23 7 -4 -2 -11 11 -14 27 -6 26 -7
24 -6 -12 0 -24 5 -43 9 -43 5 0 4 -9 -1 -19 -8 -14 -7 -22 4 -31 8 -7 15 -18
15 -24 0 -6 -5 -4 -10 4 -5 8 -10 13 -11 10 0 -3 -2 -13 -4 -22 -3 -14 5 -17
48 -15 42 2 51 5 49 19 -1 9 1 19 6 22 5 3 8 -6 6 -19 -2 -21 2 -25 26 -25 30
0 45 22 31 47 -7 12 -9 10 -15 -11 -3 -14 -11 -26 -17 -26 -8 0 -8 4 0 13 14
18 -5 37 -37 37 -17 0 -23 -4 -18 -15 3 -8 1 -15 -4 -15 -6 0 -10 7 -10 16 0
8 -4 12 -10 9 -6 -3 -7 1 -3 10 5 13 7 14 14 3 5 -8 9 12 9 51 0 56 -2 62 -17
57 -17 -6 -17 -5 0 8 9 7 17 18 17 25 0 6 -8 11 -17 11 -15 0 -16 -2 -3 -10
12 -8 11 -10 -7 -10 -12 0 -29 7 -37 16 -9 8 -16 11 -16 5z m34 -149 c3 -5 -1
-9 -9 -9 -8 0 -12 4 -9 9 3 4 7 8 9 8 2 0 6 -4 9 -8z"/>
<path d="M6530 6211 c-8 -3 -16 -14 -16 -23 -1 -10 2 -15 7 -12 5 3 9 0 9 -5
0 -17 18 -13 29 7 11 21 -7 42 -29 33z"/>
<path d="M6574 6189 c3 -25 -1 -32 -20 -40 -19 -7 -23 -14 -20 -34 3 -15 0
-24 -7 -22 -17 3 -16 -85 1 -91 7 -2 15 9 18 27 4 17 10 34 15 36 4 3 4 -9 -2
-27 -5 -18 -9 -34 -9 -35 0 -5 31 4 37 12 4 4 2 5 -4 1 -15 -9 -18 20 -3 29 6
3 10 13 10 22 0 11 -7 14 -25 11 -13 -3 -22 -1 -19 3 3 5 13 9 23 9 15 0 18
10 19 65 1 36 -3 65 -8 65 -5 0 -8 -14 -6 -31z m-10 -57 c3 -5 -1 -9 -9 -9 -8
0 -15 4 -15 9 0 4 4 8 9 8 6 0 12 -4 15 -8z"/>
<path d="M1740 6140 c-6 -11 -8 -20 -6 -20 3 0 10 9 16 20 6 11 8 20 6 20 -3
0 -10 -9 -16 -20z"/>
<path d="M6510 6138 c0 -19 2 -20 10 -8 13 19 13 30 0 30 -5 0 -10 -10 -10
-22z"/>
<path d="M6730 6130 c0 -5 5 -10 11 -10 5 0 7 5 4 10 -3 6 -8 10 -11 10 -2 0
-4 -4 -4 -10z"/>
<path d="M6811 6135 c0 -5 4 -18 7 -27 7 -16 8 -16 20 3 9 14 10 19 2 14 -7
-4 -16 -1 -21 6 -5 8 -8 10 -8 4z"/>
<path d="M6857 6116 c-21 -16 -22 -30 -2 -22 8 3 15 1 15 -4 0 -6 -4 -11 -10
-11 -5 -1 -13 -2 -17 -3 -5 -1 -23 -16 -42 -34 -19 -19 -39 -31 -48 -28 -8 3
-11 2 -8 -3 6 -12 45 -10 45 1 0 4 7 8 16 8 8 0 12 5 9 10 -3 6 1 10 10 10 11
0 15 -5 11 -15 -5 -13 -1 -12 18 2 13 10 21 22 18 28 -3 5 -7 4 -10 -3 -2 -7
-8 -12 -13 -12 -14 0 2 29 20 35 17 5 26 41 13 49 -4 2 -15 -1 -25 -8z"/>
<path d="M6726 6098 c-10 -5 -25 -11 -34 -13 -10 -2 -19 -4 -21 -4 -2 -1 2 -7
9 -15 6 -8 18 -12 26 -9 10 4 12 0 8 -11 -3 -9 -10 -13 -15 -10 -5 3 -9 3 -9
0 0 -3 9 -10 19 -15 16 -9 18 -8 14 12 -4 18 -3 19 7 7 9 -12 10 -11 5 8 -4
13 -1 29 6 38 16 19 9 25 -15 12z"/>
<path d="M6749 6062 c7 -12 17 -20 22 -16 6 3 9 7 7 8 -2 1 -12 8 -22 16 -18
14 -19 14 -7 -8z"/>
</g>
</svg>
